<?xml version="1.0" encoding="utf-8"?>
<!-- Generator: Adobe Illustrator 15.1.0, SVG Export Plug-In  -->
<!DOCTYPE svg PUBLIC "-//W3C//DTD SVG 1.1//EN" "http://www.w3.org/Graphics/SVG/1.1/DTD/svg11.dtd" [
	<!ENTITY ns_flows "http://ns.adobe.com/Flows/1.0/">
]>
<svg version="1.1"
	 xmlns="http://www.w3.org/2000/svg" xmlns:xlink="http://www.w3.org/1999/xlink" xmlns:a="http://ns.adobe.com/AdobeSVGViewerExtensions/3.0/"
	 x="0px" y="0px" width="472px" height="472px" viewBox="0 -0.595 472 472"
	 overflow="visible" enable-background="new 0 -0.595 472 472" xml:space="preserve">
<defs>
</defs>
<path fill="#68AEE0" d="M38.867,235.703c0-108.709,88.126-196.835,196.835-196.835s196.835,88.126,196.835,196.835
	s-88.126,196.835-196.835,196.835S38.867,344.412,38.867,235.703"/>
<circle fill="none" stroke="#000000" stroke-width="2" cx="235.702" cy="235.703" r="196.835"/>
<g>
	<defs>
		<rect id="SVGID_1_" x="0.06" width="471.344" height="471.405"/>
	</defs>
	<clipPath id="SVGID_2_">
		<use xlink:href="#SVGID_1_"  overflow="visible"/>
	</clipPath>
	<path clip-path="url(#SVGID_2_)" d="M235.703,41.665c107.162,0,194.037,86.875,194.037,194.037
		c0,107.163-86.875,194.038-194.037,194.038c-107.163,0-194.038-86.875-194.038-194.038C41.665,128.54,128.54,41.665,235.703,41.665
		V0C105.53,0,0,105.529,0,235.702s105.53,235.703,235.703,235.703c130.172,0,235.701-105.53,235.701-235.703S365.875,0,235.703,0
		V41.665"/>
</g>
<path fill="#FFFFFF" d="M235.703,35.664c110.477,0,200.038,89.562,200.038,200.038c0,110.478-89.562,200.039-200.038,200.039
	c-110.477,0-200.039-89.562-200.039-200.039C35.664,125.226,125.226,35.664,235.703,35.664V6.189
	C108.948,6.189,6.189,108.948,6.189,235.702c0,126.756,102.759,229.513,229.514,229.513c126.754,0,229.512-102.757,229.512-229.513
	c0-126.754-102.758-229.513-229.512-229.513V35.664"/>
<path d="M28.555,309.687c-1.461-0.285-2.76-0.901-3.914-1.99c-1.322-1.235-2.412-3.014-3.145-5.418
	c-0.979-3.208-1.074-5.965-0.414-8.116c0.883-2.678,2.758-4.349,5.756-5.263c2.96-0.904,5.495-0.304,7.533,1.483
	c1.764,1.539,3.221,4.054,4.238,7.391c0.419,1.372,0.703,2.585,0.89,3.858c0.131,0.856,0.224,1.704,0.283,2.601
	c-1.165,0.622-2.415,1.358-3.312,2.021l-0.565-1.297c1.512-1.099,2.36-1.825,2.501-3.041c0.11-0.865-0.029-2.042-0.597-3.903
	c-0.648-2.125-1.651-3.943-3.159-5.222c-1.59-1.304-3.907-1.936-6.884-1.027c-2.438,0.743-4.414,2.099-5.323,4.45
	c-0.62,1.632-0.677,3.807,0.024,6.106c0.51,1.673,1.277,3.096,2.384,4.106c0.962,0.927,2.111,1.522,3.474,1.775L28.555,309.687"/>
<path d="M28.907,322.594c-1.204-2.86-1.762-5.586-1.249-7.953c0.496-2.292,2.038-4.282,5.146-5.592
	c3.056-1.286,5.731-1.05,7.935,0.492c1.885,1.361,3.377,3.613,4.481,6.234c1.081,2.569,1.647,5.211,1.303,7.509
	c-0.438,2.654-2.139,4.732-5.195,6.02c-3.109,1.309-5.609,1.021-7.595-0.228c-2.052-1.288-3.609-3.591-4.809-6.443L28.907,322.594
	 M44.419,316.026c-0.809-1.92-1.968-3.499-3.497-4.422c-1.673-0.948-3.886-1.116-6.968,0.182c-2.509,1.056-4.314,2.699-4.968,4.861
	c-0.37,1.502-0.156,3.609,0.692,5.625c0.826,1.962,2.183,3.588,3.515,4.374c2.004,1.043,4.44,0.899,6.95-0.155
	c3.081-1.298,4.508-2.998,5-4.858c0.409-1.736,0.09-3.672-0.708-5.566L44.419,316.026z"/>
<path d="M44.869,348.746c-0.564,1.983-0.443,2.579,0.476,4.259l-0.586,0.321l-2.333-4.271l3.233-10.663l-1.764-3.229l-4.831,2.641
	c-1.467,0.801-1.46,1.032,0.014,3.73l-0.586,0.32l-4.491-8.222l0.586-0.318c1.426,2.609,1.644,2.761,3.109,1.96l10.623-5.804
	c1.461-0.8,1.452-1.064,0.027-3.675l0.585-0.319l4.627,8.47c1.668,3.053,2.466,5.029,2.674,7.112c0.183,1.892-0.276,3.258-1.635,4
	c-0.904,0.493-2.149,0.49-3.589-0.365c-1.088-0.641-2.512-1.981-3.785-3.884L44.869,348.746 M44.654,334.749l1.306,2.39
	c1.295,2.37,2.499,3.993,3.753,4.883c1.332,0.93,2.395,0.981,3.542,0.354c0.896-0.488,1.414-1.492,1.319-2.979
	c-0.071-1.251-0.574-2.838-1.821-5.119l-1.153-2.112c-0.463-0.847-0.676-0.843-1.748-0.257L44.654,334.749z"/>
<path d="M53.594,356.434l-3.338,0.655c-1.616,0.322-1.743,0.523-0.436,2.393l-0.547,0.382l-3.582-5.123l0.547-0.382
	c0.89,1.272,1.281,1.478,2.478,1.293l16.905-2.686l0.794,1.137l-7.653,15.361c-0.735,1.431-0.666,1.855,0.161,3.037l-0.547,0.382
	l-4.165-5.957l0.547-0.383c1.392,1.992,1.685,1.842,2.315,0.624l1.735-3.275L53.594,356.434 M63.491,354.804l-0.074-0.105
	l-8.861,1.603l4.699,6.721L63.491,354.804z"/>
<path d="M71.915,388.625l-11.682-13.493l0.504-0.437c1.925,2.222,2.18,2.333,3.455,1.227l9.143-7.92
	c1.253-1.085,1.177-1.358-0.743-3.577l0.504-0.436l6.141,7.092l-0.504,0.438c-2.038-2.353-2.258-2.433-3.526-1.333l-9.514,8.241
	c-0.732,0.634-0.653,0.937,0.051,1.748l4.195,4.846c1.589,1.834,2.009,2.021,4.735,1.176l0.95,1.097L71.915,388.625"/>
<path d="M105.035,412.042c0.716-0.909,0.59-1.159-1.848-3.081l0.412-0.523l6.784,5.347l-0.412,0.524
	c-1.929-1.521-2.132-1.574-2.806-0.72l-1.915,2.432c-0.995-0.159-2.26-0.525-3.673-1.169c-1.255-0.587-2.617-1.38-3.969-2.446
	c-2.403-1.893-4.182-4.103-5.023-6.367c-0.906-2.562-0.59-5.322,1.366-7.805c1.872-2.375,4.434-3.341,7.264-3.017
	c2.435,0.326,5.133,1.565,8.036,3.854c0.795,0.626,1.694,1.438,2.62,2.395c0.643,0.672,1.27,1.406,1.861,2.169
	c-0.628,1.146-1.095,2.244-1.525,3.392l-1.206-0.745c0.595-1.622,0.818-2.659,0.268-3.75c-0.381-0.775-1.225-1.77-2.801-3.012
	c-1.962-1.546-4.011-2.387-5.88-2.512c-2.343-0.124-4.557,0.911-6.178,2.97c-1.667,2.117-2.299,4.565-1.675,6.877
	c0.532,1.779,1.723,3.524,3.648,5.043c0.813,0.641,1.695,1.184,2.578,1.591c0.793,0.369,1.585,0.634,2.316,0.785L105.035,412.042"/>
<path d="M115.448,418.131l-2.816,1.905c-1.362,0.925-1.401,1.16,0.531,2.372l-0.354,0.565l-5.295-3.321l0.354-0.566
	c1.316,0.826,1.756,0.863,2.784,0.226l14.514-9.062l1.174,0.737l-1.052,17.129c-0.119,1.602,0.111,1.966,1.333,2.732l-0.354,0.565
	l-6.158-3.862l0.354-0.564c2.058,1.29,2.269,1.037,2.374-0.328l0.319-3.694L115.448,418.131 M123.921,412.773l-0.108-0.068
	l-7.532,4.929l6.948,4.358L123.921,412.773z"/>
<path d="M135.271,416.972l8.885,4.338c3.045,1.485,4.965,2.62,6.401,4.242c1.077,1.241,1.525,2.549,0.991,3.643
	c-0.404,0.827-1.311,1.526-2.902,1.627c-1.312,0.103-3.005-0.166-5.302-1.025l-0.014,0.029c2.137,1.104,3.91,2.419,5.035,3.816
	c0.973,1.193,1.473,2.521,0.89,3.715c-0.6,1.227-1.744,1.963-3.493,2.085c-1.768,0.137-4.017-0.378-7.346-2.003l-10.61-5.181
	l0.292-0.599c2.742,1.339,3.006,1.339,3.75-0.185l5.285-10.824c0.749-1.533,0.587-1.74-2.155-3.079L135.271,416.972
	 M137.448,426.559l2.883,1.407c2.112,1.031,4.062,1.654,5.586,1.658c1.303-0.02,2.366-0.458,2.906-1.563
	c0.36-0.739,0.325-1.665-0.349-2.675c-0.654-0.906-1.931-1.948-4.225-3.068l-2.77-1.353c-0.923-0.45-1.133-0.341-1.383,0.172
	L137.448,426.559z M134.237,433.133c-0.433,0.889-0.296,1.158,0.866,1.726l3.47,1.695c2.234,1.09,3.869,1.517,5.313,1.381
	c1.146-0.139,2.086-0.72,2.67-1.914c0.493-1.013,0.199-2.18-0.733-3.352c-0.912-1.142-2.567-2.312-5.068-3.533l-3.686-1.801
	L134.237,433.133z"/>
<path d="M168.054,449.388l-16.802-6.027l0.225-0.628c2.767,0.992,3.044,0.963,3.614-0.624l4.083-11.38
	c0.559-1.561,0.358-1.763-2.403-2.752l0.226-0.628l8.832,3.168l-0.225,0.629c-2.931-1.052-3.162-1.013-3.728,0.565l-4.249,11.843
	c-0.326,0.91-0.109,1.136,0.903,1.499l6.033,2.163c2.285,0.82,2.743,0.778,4.704-1.296l1.366,0.491L168.054,449.388"/>
<path d="M172.981,450.989l0.155-0.649c3.018,0.722,3.29,0.672,3.673-0.935l2.821-11.824c0.383-1.607,0.159-1.775-2.878-2.5
	l0.155-0.648l18.7,4.463l0.467,3.782l-1.405-0.336c-0.495-2.842-0.87-2.988-3.108-3.523l-7.237-1.728
	c-1.408-0.337-1.565-0.236-1.798,0.74l-1.326,5.561l6.676,1.593c1.83,0.436,2.139,0.31,2.637-1.779l1.38,0.329l-1.295,5.428
	l-1.38-0.329c0.519-2.175,0.274-2.375-1.573-2.814l-6.646-1.586l-1.519,6.364c-0.21,0.884,0.103,1.078,0.945,1.279l8.774,2.096
	c2.403,0.571,2.805,0.527,4.55-1.74l1.405,0.336l-2.279,3.17L172.981,450.989"/>
<path d="M216.047,445.542c-0.545-2.523-1.333-3.406-5.721-3.943c-1.898-0.232-3.532-0.085-4.677,0.327
	c-0.981,0.367-1.523,0.918-1.612,1.647c-0.08,0.658,0.22,1.343,1.035,2.046c0.886,0.724,2.261,1.42,4.695,2.628
	c2.955,1.481,5.024,2.279,6.478,3.547c0.894,0.865,1.501,1.83,1.356,3.014c-0.147,1.208-1.029,2.2-2.577,2.825
	c-1.716,0.67-4.311,0.958-7.758,0.536c-2.272-0.277-4.855-0.863-7.097-1.59c-0.129-1.503-0.466-2.595-0.825-3.642l1.42-0.037
	c0.918,2.973,2.896,3.955,6.95,4.452c1.767,0.217,3.46,0.109,4.734-0.319c1.266-0.426,2.146-1.18,2.277-2.255
	c0.112-0.911-0.245-1.551-0.984-2.286c-1.156-1.018-3.064-1.896-5.265-2.935c-2.427-1.283-5.111-2.396-6.261-3.612
	c-0.623-0.718-1.022-1.544-0.916-2.413c0.119-0.975,0.952-1.896,2.655-2.465c1.495-0.489,3.669-0.671,6.674-0.304
	c2.472,0.303,4.403,0.726,6.3,1.375c0.107,0.974,0.322,2.323,0.533,3.412L216.047,445.542"/>
<path d="M268.904,451.336l-1.408,0.177c-0.271-2.195-0.643-2.308-2.479-2.079l-5.921,0.734l0.714,5.746
	c0.206,1.657,0.413,1.731,4.206,1.259l0.082,0.662l-10.113,1.258l-0.082-0.662c3.031-0.377,3.258-0.522,3.055-2.163l-1.499-12.053
	c-0.204-1.641-0.473-1.723-3.49-1.348l-0.082-0.662l18.394-2.286l1.822,3.388l-1.429,0.177c-1.414-2.378-1.861-2.51-4.136-2.228
	l-6.858,0.853c-1.43,0.178-1.545,0.324-1.418,1.337l0.729,5.865l5.904-0.733c1.807-0.225,2.172-0.526,1.914-2.602l1.408-0.175
	L268.904,451.336"/>
<path d="M293.096,452.359l-17.414,3.902l-0.146-0.651c2.869-0.644,3.086-0.816,2.718-2.461l-2.646-11.804
	c-0.362-1.617-0.641-1.681-3.502-1.039l-0.146-0.651l9.153-2.051l0.146,0.649c-3.037,0.682-3.21,0.838-2.844,2.476l2.752,12.282
	c0.212,0.944,0.516,1.019,1.564,0.782l6.252-1.4c2.369-0.53,2.733-0.812,3.278-3.613l1.417-0.318L293.096,452.359"/>
<path d="M308.422,447.9c-2.937,1.006-5.693,1.378-8.021,0.704c-2.253-0.651-4.134-2.326-5.228-5.52
	c-1.076-3.138-0.657-5.792,1.031-7.886c1.485-1.789,3.833-3.125,6.523-4.048c2.638-0.903,5.312-1.288,7.582-0.788
	c2.619,0.619,4.577,2.458,5.652,5.595c1.094,3.193,0.637,5.67-0.744,7.566c-1.424,1.961-3.828,3.357-6.756,4.361L308.422,447.9
	 M302.924,431.968c-1.97,0.675-3.625,1.726-4.65,3.188c-1.059,1.605-1.377,3.802-0.293,6.968c0.884,2.576,2.399,4.49,4.514,5.291
	c1.473,0.472,3.59,0.401,5.658-0.308c2.015-0.691,3.73-1.935,4.604-3.211c1.178-1.929,1.202-4.369,0.319-6.946
	c-1.085-3.165-2.685-4.705-4.507-5.323c-1.706-0.526-3.657-0.34-5.604,0.327L302.924,431.968z"/>
<path d="M338.193,432.416c1.949,0.669,2.551,0.581,4.28-0.245l0.287,0.603l-4.394,2.098l-10.471-3.808l-3.319,1.586l2.37,4.968
	c0.72,1.508,0.951,1.513,3.727,0.188l0.287,0.603l-8.455,4.037l-0.287-0.604c2.684-1.28,2.846-1.491,2.128-2.996l-5.212-10.925
	c-0.716-1.502-0.981-1.508-3.666-0.225l-0.287-0.603l8.712-4.16c3.14-1.499,5.157-2.188,7.249-2.283
	c1.898-0.079,3.236,0.453,3.903,1.85c0.443,0.93,0.372,2.172-0.562,3.564c-0.7,1.052-2.115,2.4-4.086,3.568L338.193,432.416
	 M324.204,431.868l2.459-1.173c2.438-1.165,4.125-2.278,5.082-3.483c1.001-1.278,1.112-2.338,0.55-3.517
	c-0.441-0.922-1.412-1.493-2.902-1.48c-1.254,0.002-2.866,0.419-5.213,1.539l-2.173,1.038c-0.87,0.416-0.878,0.629-0.353,1.732
	L324.204,431.868z"/>
<path d="M340.826,416.748c-0.837-1.416-1.03-1.415-4.471,0.619l-0.339-0.575l9.643-5.702l0.339,0.576
	c-3.439,2.033-3.533,2.202-2.696,3.618l6.203,10.499c0.837,1.417,1.029,1.416,4.473-0.62l0.34,0.575l-9.649,5.704l-0.339-0.574
	c3.442-2.035,3.537-2.205,2.7-3.621L340.826,416.748"/>
<path d="M357.13,423.44c2.419-1.755,2.537-1.989,1.566-3.329l-7.119-9.818c-0.972-1.34-1.23-1.3-3.649,0.455l-0.393-0.54l8.271-6
	c3.457-2.508,5.942-3.658,8.502-3.904c3.101-0.285,5.278,0.951,6.834,3.098c1.562,2.154,2.088,4.575,1.081,7.216
	c-0.965,2.372-2.947,4.835-7.103,7.849l-7.6,5.515L357.13,423.44 M361.248,418.734c0.607,0.837,0.873,0.862,1.831,0.168l1.507-1.094
	c2.951-2.142,4.827-4.395,5.463-6.634c0.609-2.032,0.159-3.934-1.188-5.792c-1.604-2.212-3.327-3.291-5.782-3.303
	c-2.146,0.02-4.379,1.076-6.887,2.896l-2.21,1.604c-0.849,0.616-0.91,0.879-0.486,1.463L361.248,418.734z"/>
<path d="M379.352,400.31l1.086,3.224c0.531,1.56,0.747,1.659,2.43,0.119l0.45,0.492l-4.61,4.222l-0.451-0.492
	c1.146-1.049,1.299-1.463,0.958-2.625l-4.874-16.41l1.022-0.935l16.233,5.575c1.513,0.541,1.926,0.417,2.989-0.559l0.45,0.493
	l-5.361,4.91l-0.451-0.492c1.793-1.641,1.605-1.913,0.316-2.377l-3.477-1.291L379.352,400.31 M376.439,390.71l-0.095,0.087
	l2.748,8.577l6.05-5.541L376.439,390.71z"/>
<path d="M413.561,345.938c0.85-2.779,1.252-4.615,1.518-6.5l0.335-0.294l12.192,7.157c1.441,0.846,1.666,0.719,3.454-2.326
	l0.575,0.338l-5.269,8.971l-0.575-0.338c1.864-3.175,1.866-3.417,0.418-4.268l-9.342-5.483c-0.805-0.472-1.245-0.479-1.626,0.172
	c-0.375,0.638-0.597,1.433-0.952,2.575L413.561,345.938"/>
<path d="M424.105,334.452c-1.403-0.674-2.418-1.853-2.742-3.465c-0.331-1.572-0.079-3.457,0.987-5.679
	c1.949-4.059,5.573-5.844,10.521-3.468c3.008,1.446,4.856,3.324,5.562,5.522c0.531,1.724,0.291,3.715-0.775,5.934
	c-0.894,1.864-1.931,3.079-2.854,3.761c-1.099,0.783-2.059,0.896-2.587,0.644c-0.547-0.264-0.653-0.8-0.326-1.482
	c0.383-0.797,0.749-1.015,1.613-1.015c0.504,0.027,1.202-0.045,1.88-0.432c0.548-0.334,1.104-0.962,1.529-1.851
	c0.688-1.432,0.698-2.714,0.229-3.858c-0.795-1.813-2.7-3.283-4.905-4.337l-0.05,0.096c0.615,1.333,0.682,3.428-0.405,5.69
	c-0.882,1.837-1.946,3.024-3.211,3.714c-1.349,0.777-2.901,0.977-4.444,0.235L424.105,334.452 M425.346,331.829
	c0.895,0.429,2.355,0.654,3.625,0.134c0.88-0.397,1.667-1.116,2.272-2.38c0.629-1.309,0.679-2.574,0.333-3.651
	c-0.291-0.872-0.626-1.657-1.85-2.245c-1.984-0.953-5.255-0.923-6.664,2.013c-0.737,1.537-0.666,2.866-0.138,3.91
	c0.513,0.995,1.429,1.744,2.398,2.209L425.346,331.829z"/>
<path d="M447.225,309.614l-4.611,12.101l-0.41,0.283c-1.315-0.952-2.34-2.291-3.471-4.687c-0.738-1.725-1.184-3.54-1.644-6.021
	c-0.444-2.249-1.104-3.664-2.597-4.231c-1.166-0.445-2.141-0.287-2.947,0.351c-0.641,0.515-1.146,1.206-1.594,2.381
	c-0.428,1.124-0.56,1.992-0.372,2.831c0.169,0.726,0.519,1.291,1.247,1.85c0.592,0.488,0.618,0.944,0.34,1.676
	c-0.251,0.658-0.689,0.986-1.399,0.717c-0.638-0.243-1.292-1.267-1.409-2.855c-0.064-1.2,0.138-2.737,0.856-4.625
	c0.694-1.821,1.565-3.191,2.585-4.091c1.121-1.006,2.442-1.452,3.788-0.938c1.394,0.531,2.165,2.292,2.717,4.236
	c0.453,2.072,0.694,4.114,1.196,6.011c0.561,2.076,1.428,3.931,2.574,4.931l2.713-7.119c0.81-2.124,0.669-2.471-0.639-3.821
	l0.493-1.036L447.225,309.614"/>
<path d="M433.747,297.354l2.128-7.393c0.368-1.279,0.369-1.458,0.092-1.795l0.311-1.08l1.426,1.155l-2.303,8l4.841,2.692
	l0.035-0.047c-0.235-1.22-0.184-2.691,0.277-4.291c0.596-2.071,1.483-3.431,2.623-4.308c1.185-0.889,2.653-1.161,4.244-0.703
	c1.712,0.493,3.058,1.635,3.718,3.279c0.528,1.473,0.556,3.373-0.082,5.588c-0.555,1.926-1.427,3.321-2.311,4.203
	c-0.818,0.81-1.716,1.243-2.323,1.068c-0.774-0.225-0.869-0.954-0.668-1.653c0.144-0.502,0.415-0.908,0.92-1.007
	c0.708,0.014,1.398-0.201,2.151-0.694c0.603-0.411,1.134-1.12,1.473-2.295c0.404-1.405,0.197-2.705-0.478-3.714
	c-0.631-0.861-1.581-1.512-3.005-1.922c-1.523-0.439-2.852-0.412-3.937,0.302c-0.726,0.537-1.289,1.33-1.651,2.585
	c-0.5,1.741-0.273,3.511,0.479,4.824l-0.5,1.096L433.747,297.354"/>
<path d="M24.832,218.544c-1.154-0.079-1.29,0.165-1.503,3.264l-0.665-0.046l0.591-8.619l0.666,0.046
	c-0.168,2.449-0.098,2.648,0.989,2.723l3.088,0.213c0.429,0.911,0.839,2.163,1.106,3.692c0.222,1.368,0.334,2.941,0.216,4.659
	c-0.209,3.052-1.031,5.767-2.428,7.737c-1.606,2.194-4.064,3.488-7.219,3.27c-3.018-0.208-5.26-1.78-6.588-4.303
	c-1.103-2.195-1.602-5.122-1.348-8.809c0.07-1.01,0.233-2.211,0.502-3.515c0.192-0.91,0.445-1.842,0.743-2.76
	c1.3-0.127,2.471-0.36,3.661-0.651l0.064,1.417c-1.675,0.422-2.658,0.822-3.249,1.891c-0.425,0.751-0.771,2.009-0.909,4.012
	c-0.171,2.491,0.291,4.658,1.241,6.272c1.219,2.006,3.323,3.252,5.938,3.432c2.688,0.185,5.068-0.674,6.624-2.491
	c1.172-1.443,1.942-3.41,2.11-5.856c0.071-1.033,0.022-2.067-0.139-3.027c-0.142-0.863-0.37-1.666-0.657-2.356L24.832,218.544"/>
<path d="M30.355,195.741c1.661-1.222,1.93-1.767,2.234-3.659l0.659,0.106l-0.772,4.807l-9.089,6.445l-0.584,3.632l5.438,0.876
	c1.65,0.265,1.787,0.078,2.275-2.958l0.658,0.106l-1.485,9.25l-0.659-0.106c0.471-2.937,0.39-3.19-1.257-3.455l-11.956-1.925
	c-1.643-0.264-1.799-0.049-2.271,2.887l-0.659-0.106l1.532-9.53c0.551-3.434,1.13-5.486,2.243-7.261
	c1.014-1.606,2.213-2.404,3.742-2.158c1.018,0.164,2,0.929,2.615,2.488c0.467,1.174,0.773,3.105,0.613,5.39L30.355,195.741
	 M21.949,206.935l0.432-2.689c0.429-2.668,0.472-4.689,0.024-6.16c-0.483-1.551-1.292-2.244-2.582-2.452
	c-1.009-0.162-2.032,0.313-2.868,1.546c-0.711,1.032-1.286,2.595-1.698,5.163l-0.382,2.376c-0.153,0.952,0.019,1.08,1.225,1.274
	L21.949,206.935z"/>
<path d="M33.277,192.282l-0.644-0.171c0.796-3,0.753-3.272-0.843-3.695l-11.747-3.115c-1.596-0.423-1.77-0.203-2.571,2.815
	l-0.644-0.171l4.931-18.585l3.792-0.373l-0.37,1.397c-2.852,0.424-3.01,0.795-3.6,3.02l-1.909,7.192
	c-0.371,1.4-0.276,1.559,0.694,1.816l5.524,1.464l1.76-6.635c0.483-1.818,0.365-2.13-1.711-2.68l0.364-1.372l5.392,1.43
	l-0.364,1.371c-2.16-0.573-2.366-0.333-2.852,1.503l-1.753,6.605l6.322,1.676c0.879,0.233,1.082-0.076,1.304-0.912l2.314-8.719
	c0.633-2.389,0.598-2.792-1.624-4.592l0.371-1.397l3.111,2.358L33.277,192.282"/>
<path d="M36.298,162.293l2.41,2.4c1.17,1.161,1.408,1.154,2.228-0.975l0.622,0.24l-2.246,5.834l-0.623-0.24
	c0.559-1.449,0.511-1.889-0.312-2.777l-11.68-12.516l0.498-1.293l17.02-2.244c1.596-0.19,1.91-0.485,2.428-1.831l0.623,0.239
	l-2.612,6.785l-0.623-0.24c0.873-2.267,0.585-2.426-0.776-2.268l-3.688,0.393L36.298,162.293 M29.411,154.999l-0.046,0.12
	l6.284,6.451l2.947-7.654L29.411,154.999z"/>
<path d="M51.068,136.322c1.473,0.757,1.653,0.669,3.31-2.552l0.588,0.302l-4.777,9.285l-0.588-0.302
	c1.657-3.222,1.625-3.419,0.152-4.177l-12.132-6.239l-2.173,4.222c-1.101,2.141-1.136,2.447,0.904,4.45l-0.623,1.211l-2.918-2.562
	l9.285-18.048l3.782,0.883l-0.623,1.212c-2.875-0.48-3.076-0.229-4.15,1.858l-2.169,4.217L51.068,136.322"/>
<path d="M72.772,86.147c-2.407-0.938-3.578-0.767-6.445,2.599c-1.24,1.455-2.018,2.899-2.305,4.082
	c-0.234,1.022-0.074,1.777,0.486,2.254c0.504,0.429,1.242,0.557,2.277,0.264c1.092-0.34,2.43-1.103,4.781-2.469
	c2.865-1.648,4.67-2.935,6.529-3.449c1.215-0.269,2.354-0.244,3.262,0.529c0.926,0.79,1.27,2.073,0.937,3.708
	c-0.388,1.802-1.577,4.127-3.829,6.77c-1.485,1.743-3.398,3.575-5.24,5.044c-1.324-0.72-2.421-1.041-3.492-1.319l0.752-1.204
	c2.986,0.872,4.896-0.237,7.544-3.346c1.156-1.355,2-2.826,2.344-4.126c0.342-1.291,0.198-2.44-0.626-3.143
	c-0.698-0.595-1.429-0.651-2.45-0.439c-1.486,0.403-3.271,1.51-5.35,2.775c-2.409,1.318-4.817,2.943-6.465,3.233
	c-0.942,0.124-1.852,0.001-2.519-0.567c-0.747-0.637-1.056-1.84-0.591-3.573c0.415-1.518,1.462-3.432,3.425-5.737
	c1.616-1.896,3.032-3.274,4.62-4.498c0.871,0.447,2.116,1.012,3.141,1.436L72.772,86.147"/>
<path d="M85.554,91.562l-0.459-0.483c2.25-2.139,2.356-2.393,1.219-3.591l-8.37-8.81c-1.137-1.197-1.4-1.1-3.664,1.05l-0.459-0.483
	L87.76,65.999l3.424,1.67l-1.048,0.996c-2.65-1.134-2.979-0.9-4.648,0.685l-5.394,5.126c-1.049,0.998-1.051,1.184-0.361,1.91
	l3.936,4.143l4.976-4.729c1.364-1.296,1.427-1.623-0.052-3.18l1.028-0.978l3.842,4.044l-1.028,0.978
	c-1.539-1.62-1.84-1.524-3.217-0.215l-4.953,4.707l4.505,4.742c0.625,0.659,0.96,0.502,1.587-0.093l6.541-6.215
	c1.79-1.702,1.972-2.064,1.023-4.762l1.048-0.996l1.413,3.639L85.554,91.562"/>
<path d="M102.706,68.599l0.789,3.309c0.386,1.601,0.592,1.72,2.407,0.34l0.404,0.531l-4.975,3.783l-0.404-0.531
	c1.237-0.94,1.427-1.339,1.193-2.527L98.759,56.72l1.102-0.838l15.658,7.035c1.458,0.677,1.879,0.59,3.028-0.282l0.403,0.53
	l-5.785,4.4l-0.404-0.531c1.934-1.471,1.772-1.758,0.531-2.338l-3.344-1.603L102.706,68.599 M100.679,58.776l-0.102,0.078
	l1.957,8.79l6.528-4.964L100.679,58.776z"/>
<path d="M134.254,53.91l-15.232,9.306l-0.348-0.569c2.509-1.533,2.66-1.767,1.78-3.206l-6.305-10.319
	c-0.864-1.414-1.147-1.385-3.65,0.145l-0.348-0.57l8.007-4.891l0.348,0.569c-2.657,1.623-2.771,1.828-1.896,3.259l6.561,10.738
	c0.505,0.825,0.816,0.797,1.733,0.237l5.47-3.341c2.071-1.266,2.326-1.649,1.94-4.478l1.239-0.756L134.254,53.91"/>
<path d="M182.533,19.794c-0.439-1.613-0.704-1.653-3.186-0.978l-0.175-0.643l7.017-1.912l0.176,0.644
	c-2.444,0.666-2.612,0.839-2.177,2.438l2.414,8.864c0.524,1.925,0.242,3.525-1.068,4.905c-1.14,1.155-2.914,2.099-5.554,2.818
	c-2.732,0.744-4.79,0.922-6.296,0.594c-2.168-0.442-3.16-1.67-3.812-4.065l-2.335-8.579c-0.438-1.606-0.647-1.67-3.244-0.962
	l-0.175-0.644l8.316-2.265l0.175,0.643c-2.557,0.697-2.716,0.846-2.275,2.466l2.316,8.506c0.453,1.666,1.166,2.832,2.573,3.34
	c1.18,0.509,2.736,0.504,4.911-0.088c1.929-0.526,3.427-1.292,4.243-2.373c0.946-1.176,0.918-2.562,0.476-4.188L182.533,19.794"/>
<path d="M208.05,27.832l0.085-0.014l-1.981-12.358c-0.264-1.646-0.555-1.715-3.473-1.246l-0.106-0.659l7.712-1.239l0.106,0.659
	c-2.611,0.42-2.851,0.576-2.587,2.219l2.336,14.57l-2.438,0.392l-15.645-13.258l-0.085,0.014l2.047,12.772
	c0.264,1.643,0.532,1.718,3.322,1.27l0.105,0.659l-7.776,1.249l-0.106-0.659c2.85-0.458,3.067-0.61,2.804-2.254l-1.92-11.974
	c-0.265-1.652-0.484-1.719-3.394-1.251l-0.105-0.659l6.165-0.99L208.05,27.832"/>
<path d="M215.505,14.519c-0.131-1.641-0.306-1.725-4.29-1.403l-0.053-0.665l11.167-0.902l0.053,0.665
	c-3.984,0.322-4.142,0.433-4.01,2.073l0.977,12.158c0.131,1.64,0.306,1.724,4.292,1.402l0.054,0.665l-11.173,0.903l-0.053-0.665
	c3.987-0.322,4.145-0.433,4.013-2.073L215.505,14.519"/>
<path d="M241.696,13.637c0.672-1.506,0.422-1.741-1.813-1.738l-0.002-0.667l6.23-0.011l0.001,0.668
	c-1.696,0.003-1.994,0.209-2.509,1.312l-7.198,15.391l-1.521,0.003l-7.617-15.052c-0.757-1.468-0.955-1.62-2.883-1.616l-0.001-0.667
	l7.673-0.014l0.001,0.668c-2.441,0.004-2.426,0.357-1.733,1.867l5.815,11.897h0.127L241.696,13.637"/>
<path d="M246.781,28.266l0.07-0.663c3.088,0.323,3.351,0.239,3.523-1.403l1.267-12.087c0.172-1.643-0.072-1.78-3.178-2.106
	l0.069-0.663l19.129,2.004l0.952,3.689l-1.438-0.151c-0.858-2.752-1.249-2.85-3.539-3.091l-7.403-0.775
	c-1.439-0.151-1.583-0.032-1.688,0.966l-0.596,5.683l6.829,0.716c1.871,0.196,2.162,0.031,2.386-2.105l1.411,0.148l-0.581,5.548
	l-1.412-0.147c0.233-2.223-0.035-2.389-1.925-2.587l-6.798-0.712l-0.683,6.506c-0.095,0.903,0.242,1.056,1.103,1.147l8.975,0.94
	c2.458,0.257,2.852,0.16,4.288-2.313l1.438,0.15l-1.851,3.438L246.781,28.266"/>
<path d="M288.497,32.514c1.127,1.726,1.656,2.026,3.528,2.436l-0.143,0.651l-4.756-1.042l-5.928-9.436l-3.593-0.788l-1.177,5.379
	c-0.357,1.631-0.178,1.779,2.825,2.437l-0.142,0.651l-9.15-2.005l0.141-0.651c2.906,0.636,3.164,0.57,3.521-1.061l2.587-11.823
	c0.355-1.626,0.149-1.794-2.756-2.43l0.143-0.652l9.428,2.066c3.397,0.745,5.412,1.439,7.123,2.649
	c1.547,1.103,2.276,2.346,1.945,3.858c-0.22,1.007-1.038,1.944-2.629,2.469c-1.197,0.401-3.143,0.596-5.414,0.308L288.497,32.514
	 M277.791,23.491l2.66,0.583c2.639,0.578,4.654,0.735,6.147,0.372c1.575-0.396,2.312-1.163,2.591-2.44
	c0.219-0.997-0.198-2.045-1.383-2.95c-0.99-0.767-2.52-1.429-5.06-1.986l-2.351-0.515c-0.942-0.206-1.079-0.043-1.34,1.151
	L277.791,23.491z"/>
<path d="M311.159,28.135c-0.037-2.584-0.636-3.604-4.832-4.996c-1.814-0.601-3.444-0.779-4.648-0.6
	c-1.035,0.168-1.674,0.6-1.905,1.297c-0.209,0.63-0.05,1.361,0.61,2.21c0.726,0.885,1.937,1.838,4.085,3.503
	c2.605,2.035,4.476,3.224,5.651,4.754c0.705,1.024,1.11,2.089,0.735,3.222c-0.383,1.155-1.443,1.956-3.083,2.263
	c-1.814,0.318-4.416,0.09-7.712-1.002c-2.173-0.721-4.589-1.805-6.644-2.959c0.169-1.499,0.055-2.636-0.091-3.733l1.398,0.243
	c0.314,3.096,2.06,4.45,5.936,5.735c1.69,0.56,3.371,0.79,4.705,0.62c1.325-0.169,2.336-0.735,2.677-1.763
	c0.289-0.871,0.065-1.569-0.515-2.435c-0.932-1.225-2.629-2.464-4.582-3.915c-2.127-1.737-4.539-3.357-5.427-4.775
	c-0.469-0.827-0.697-1.716-0.422-2.548c0.309-0.932,1.308-1.671,3.088-1.893c1.562-0.186,3.729,0.065,6.604,1.018
	c2.364,0.784,4.174,1.578,5.904,2.588c-0.087,0.976-0.142,2.344-0.149,3.451L311.159,28.135"/>
<path d="M321.119,30.678c0.643-1.513,0.527-1.669-3.151-3.23l0.261-0.614l10.312,4.376l-0.262,0.614
	c-3.679-1.561-3.87-1.536-4.514-0.023l-4.769,11.22c-0.644,1.514-0.528,1.669,3.153,3.231l-0.261,0.614l-10.317-4.379l0.261-0.613
	c3.682,1.562,3.874,1.537,4.518,0.023L321.119,30.678"/>
<path d="M334.982,50.735c-0.774,1.464-0.688,1.645,2.514,3.339l-0.309,0.585l-9.229-4.884l0.309-0.585
	c3.201,1.695,3.4,1.664,4.174,0.2l6.379-12.063l-4.197-2.221c-2.128-1.126-2.435-1.165-4.46,0.853l-1.204-0.637l2.596-2.89
	l17.94,9.494l-0.927,3.772l-1.204-0.637c0.512-2.869,0.264-3.073-1.811-4.171l-4.191-2.218L334.982,50.735"/>
<path d="M352.715,46.644c-0.155-1.791-0.421-2.188-1.633-2.994l0.369-0.555l6.324,4.203l-0.369,0.556
	c-2.085-1.386-2.293-1.219-2.185,0.324l0.569,7.895l0.105,0.07l7.133-2.676c1.544-0.597,1.666-0.77-0.263-2.051l0.37-0.556
	l5.035,3.347l-0.368,0.556c-1.174-0.781-1.61-0.858-3.141-0.278l-8.726,3.024l-2.785,4.194c-0.919,1.383-0.799,1.618,1.938,3.437
	l-0.369,0.556l-8.284-5.506l0.369-0.555c2.764,1.836,3.031,1.86,3.952,0.473l2.804-4.22L352.715,46.644"/>
<path d="M383.957,91.08c-2.169-2.222-3.686-4.552-4.073-6.944c-0.378-2.314,0.33-4.73,2.746-7.086
	c2.375-2.316,4.951-3.074,7.568-2.446c2.252,0.576,4.466,2.125,6.452,4.161c1.946,1.994,3.441,4.245,3.961,6.51
	c0.563,2.631-0.259,5.187-2.635,7.503c-2.414,2.356-4.85,3.003-7.154,2.568c-2.382-0.447-4.675-2.02-6.835-4.235L383.957,91.08
	 M395.996,79.29c-1.454-1.49-3.112-2.536-4.874-2.834c-1.904-0.27-4.026,0.383-6.421,2.718c-1.95,1.902-3.029,4.091-2.848,6.344
	c0.205,1.532,1.176,3.415,2.703,4.98c1.486,1.524,3.346,2.541,4.873,2.783c2.248,0.238,4.465-0.786,6.414-2.688
	c2.395-2.335,3.102-4.439,2.879-6.349c-0.256-1.767-1.26-3.45-2.697-4.923L395.996,79.29z"/>
<path d="M407.09,108.564l-0.879-1.115c1.737-1.368,1.642-1.742,0.497-3.197l-3.693-4.687l-4.546,3.581
	c-1.311,1.033-1.268,1.248,1.099,4.251l-0.524,0.413l-6.307-8.008l0.523-0.412c1.891,2.401,2.132,2.519,3.431,1.496l9.535-7.512
	c1.298-1.023,1.229-1.296-0.653-3.685l0.524-0.413l11.473,14.564l-1.955,3.309l-0.892-1.131c1.304-2.439,1.185-2.891-0.233-4.691
	l-4.277-5.43c-0.892-1.132-1.077-1.154-1.878-0.523l-4.641,3.656l3.683,4.674c1.128,1.431,1.574,1.588,3.216,0.295l0.878,1.114
	L407.09,108.564"/>
<path d="M445.302,153.995l-0.604,0.281c-1.209-2.595-1.401-2.703-2.916-1.998l-10.953,5.105c-1.508,0.702-1.536,0.942-0.335,3.521
	l-0.604,0.282l-3.673-7.888l0.604-0.281c1.128,2.422,1.288,2.461,2.793,1.759l11.286-5.258l-0.041-0.087l-17.078-1.071l-0.521-1.119
	L433.3,133.13l-0.028-0.06l-11.312,5.271c-1.505,0.701-1.568,0.869-0.463,3.243l-0.604,0.282l-3.13-6.721l0.604-0.282
	c1.194,2.567,1.382,2.663,2.888,1.961l11.074-5.16c1.413-0.658,1.44-0.854,0.241-3.429l0.604-0.282l2.58,5.54l-9.59,13.551
	l0.043,0.092l16.379,1.027L445.302,153.995"/>
<path d="M444.985,161.318c1.554-0.541,1.591-0.731,0.276-4.504l0.63-0.219l3.684,10.576l-0.629,0.22
	c-1.314-3.773-1.462-3.899-3.015-3.358l-11.515,4.009c-1.554,0.541-1.591,0.73-0.275,4.506l-0.63,0.22l-3.687-10.583l0.63-0.22
	c1.316,3.777,1.463,3.902,3.017,3.362L444.985,161.318"/>
<path d="M440.607,177.286l-3.356-0.553c-1.626-0.264-1.816-0.121-1.246,2.088l-0.646,0.167l-1.563-6.053l0.646-0.167
	c0.388,1.504,0.683,1.834,1.868,2.078l16.779,3.401l0.348,1.342l-12.547,11.714c-1.189,1.082-1.272,1.504-0.912,2.901l-0.646,0.167
	l-1.818-7.039l0.646-0.167c0.608,2.353,0.936,2.314,1.951,1.396l2.772-2.463L440.607,177.286 M450.451,179.222l-0.032-0.124
	l-8.863-1.6l2.052,7.941L450.451,179.222z"/>
<path d="M460.16,221.261l-0.662,0.085c-0.361-2.84-0.513-3.002-2.17-2.79l-11.992,1.529c-1.65,0.211-1.75,0.431-1.39,3.253
	l-0.662,0.085l-1.101-8.631l0.662-0.085c0.338,2.65,0.479,2.736,2.127,2.526l12.354-1.576l-0.013-0.095l-15.948-6.216l-0.156-1.224
	l13.861-10.388l-0.009-0.066l-12.383,1.58c-1.648,0.21-1.76,0.35-1.43,2.949l-0.661,0.084l-0.938-7.356l0.661-0.084
	c0.358,2.809,0.508,2.957,2.155,2.747l12.124-1.546c1.546-0.198,1.633-0.376,1.273-3.194l0.662-0.084l0.772,6.062l-13.262,9.991
	l0.013,0.101l15.296,5.961L460.16,221.261"/>
<path d="M457.654,229.034c1.646-0.037,1.738-0.206,1.646-4.201l0.667-0.016l0.258,11.199l-0.667,0.015
	c-0.092-3.995-0.193-4.159-1.838-4.122l-12.189,0.279c-1.644,0.038-1.738,0.207-1.646,4.204l-0.666,0.016l-0.258-11.204l0.667-0.016
	c0.092,3.999,0.193,4.163,1.838,4.125L457.654,229.034"/>
<path d="M311.823,323.62c1,2.199,1.899,3.645,1.899,7.145c0,2.334,0,24.25,0,24.25c-1,3.5-4.199,7.305-6.199,10.305
	c-2.7,2.899-4.6,6.2-6.7,9.399c-0.399,0.199-0.8-0.099-0.899-0.5l0.299-1.801c0.5-2.798,1.4-5.599,1.801-8.398
	c-0.6,0.101-0.5,0.898-1.1,1.199c-2.5,3.601-5.701,6.901-8.4,10.5c-0.5,0.699-1.301,1.5-1.9,2.199c-2.4,3.301-5.4,5.901-8.3,8.801
	c-2.5,2.699-5.5,5.199-8.101,7.801c-1,0.8-2,1.8-3.1,2.5c-0.9,0.699-5.65,4.413-7.4,5.898c-2.562,1.89-5.438,3.938-7.938,5.64
	c0,0,0,6.125,0,7.375c-1.1,1.698-1.861,2.688-3.562,3.786c-2.799,1.801-5.899,2.801-9.199,3.5l-2.801,0.199l-4.599,0.102
	c-3.5-0.5-6.901-1.399-10-2.899c-2.301-1.5-4.467-2.913-6.067-5.312c0-1.438,0-6.288,0-6.288c-2.701-2.2-5.634-4.102-8.534-6
	c-3.2-2.5-6.399-5.301-9.399-8.102l-3.301-2.5c-0.9-1.099-2.199-2-3.3-3.099c-3.399-3.5-7.399-6.8-10.2-10.699
	c-2.4-2.601-4.6-5.601-7.3-7.901c-0.2,0-0.3-0.099-0.399,0.101c0.599,3.301,1.699,6.801,2.699,10c0,0.2-0.1,0.5-0.4,0.5
	c-0.6-0.199-1-1-1.6-1.3l-3-2.801c-1.199-1.301-2.6-2.5-3.8-3.899c-4.2-4.5-7.6-9.401-8.8-15.199v-28.702c0-1.099,0-2.398,0.5-3.298
	c0.6-0.901,1.5-1.702,2.5-1.901c1.5-0.399,2.7,0.301,4,0.901c2.401,1.699,4.6,3.798,6.6,6.099c4.1,4.901,8.4,10,12.5,15
	c1.5,1.301,2.2,2.699,3.7,4c3.8,3.699,7.8,7.301,11.7,10.801l1.6,1.398c2.7,2.301,5.301,4.5,8,6.602c2.5,2.101,5,4,7.6,5.8
	c1.201,1,2.6,1.599,3.8,2.599c1.7,1,3.2,2.401,5,3.202c0.5,0.416,1.417,1,1.901,1.207c0,3.355,0,10.188,0,13.188l0.299,0.305
	l2.1,0.5l1.2,0.099c2.1,0.301,4.1,0,6.1-0.099c0.899-0.5,2.399,0,3-1c0-2.449,0-12.992,0-12.992
	c0.983-1.125,2.399-2.308,3.399-3.207c2.101-1.901,4.601-3.202,6.801-4.801c3.4-3,7.3-5.3,10.6-8.401c1.301-1.398,2.6-2.599,4-3.699
	c2.5-2.099,4.5-4.399,6.9-6.5c2.6-2.801,5.4-5.599,7.6-8.599c1.301-1.401,2.6-2.702,3.801-4.101c1.1-0.899,2-2.301,3-3.2
	c4.299-4,7.6-9,11.199-13.5c1.301-1.199,2.301-3.199,4.1-3.699c1.4-0.801,3.5-0.5,4.801,0.298L311.823,323.62"/>
<path d="M145.536,203.869c0,117.001,90,165.001,90,165.001s89.999-48,89.999-165.001H145.536"/>
<path fill="#00693F" d="M151.865,210.702c0.069,4.238,0.28,8.365,0.593,12.404l113.626,113.687
	c9.855-9.688,20.607-22.496,29.854-38.71l-87.379-87.379L151.865,210.702"/>
<path fill="#FFD520" d="M319.204,210.707l-102.896-0.003l82.375,82.376C310.094,271.442,318.628,244.186,319.204,210.707"/>
<path fill="#FFFFFF" d="M235.536,360.536c0,0,11.82-6.311,26.575-19.953L153.387,232.261
	C164.772,322.92,235.536,360.536,235.536,360.536"/>
<path d="M197.923,282.736c-0.2,1-1.3,1.8-2.1,2.5c-1,0.2-2.1-2-3-0.2c-0.1,1.2,1.3,1.799,1.7,2.799c-0.2,0.801-0.8,1.102-0.2,1.801
	c0.8,0.4,1.2-0.399,2-0.301c0.9,0.5,1.8,2.102,3,1.5c0.2-0.299,0.5-0.898,0-1.398c-0.3-0.5-1.1-0.9-0.6-1.602
	c0.9-0.5,1.4-2.099,2.6-1.699c1.3,1.301,2.7,2.4,3.8,3.9l-0.4,1l-5.2,5.1c-0.8,0.101-1.2-1-2.2-0.699c-0.1,0.6-0.7,0.398-0.3,0.898
	c0.1,0.5,1.1,0.401,1.6,0.401c0.7,0.7,2.3,1.599,1.8,2.8c-0.4,0.799,0.4,1.2,0.7,1.7l23.8,23.9c0.3,0.6,1,0.5,1.4,0.1
	c1.5-2.2,4.5-0.901,6.9-1.301l0.9,0.201c0.2-0.302,0-0.601,0-1.001c0.4-0.699,1.3-0.899,2.1-0.899c2.5,0.2,4.5,2.199,5.301,4.5
	c0.3,1.099-0.2,2-0.801,2.699c-0.399,0.399-0.899-0.199-1.199,0.101l0.3,1.101l-0.2,5.6c1.2-0.2,1.5,1.099,2.1,1.8
	c0.4,1.299-0.1,2.7-1,3.601c-1.299,1.198-2.6,2.5-4.399,2.5c-1.1,0-2-0.701-2.7-1.4c-2.1,0.4-4.6,0-6.6,0.3
	c0,1.101-1.3,1.2-2.1,1.299c-2.2,0.101-3.9-1.698-4.9-3.5c-0.7-0.899-0.5-2.198,0.1-3l0.8-0.899c0.3-2.699-0.6-6.101,1.2-8.199
	l-1.9-1.6l-22.9-22.802c-0.6-0.5-1.2-0.599-1.8-0.099c-0.4,0.5-0.9,0.099-1.2-0.3l-1.6-1.801c0.3-0.5,0.9-1.1,0.5-1.801
	c-3-3.199-6.3-6.799-9.8-9.5c-0.8-0.099-1.5,1.301-2.1,0.301c-0.5-0.699-1.5-1-1.6-1.899c0.7-0.7,1-1.7,0.2-2.401
	c-0.3-0.199-0.5-0.699-0.1-1l2.4-2.5c1.2-0.398,2,2.201,3.1,0.5c1.2,0.901,2.8,1.701,2.3,3.301c0.3,0.301,0.7,0.101,1,0
	c1-1-1.1-1.399-0.6-2.5l5.8-5.699l0.4,0.1L197.923,282.736"/>
<path fill="#FFD520" d="M309.424,326.718c0.5,1.801-0.5,3.401-1.101,5c-1.7,1.801-2.8,4-4.5,5.801c-1.2,1.101-1.8,2.601-3.101,3.601
	c-1.6,1.798-3.199,3.399-4.799,5.199c-0.5,0.399-0.4,1-0.301,1.5c0.801,0.801,1.9,0.899,2.801,1.399
	c2,0.699,3.899,1.601,5.899,2.401c1.101,0.099,0.5,1.099,0.399,1.699c-0.5,1.801-0.699,3.7-2,5.099c-1,1.102-1.5,2.5-2.5,3.602
	c-2.899,3.5-5.199,7-8,10.398c-1.399,1.202-2.1,2.702-3.399,3.901c-0.899,0.5-1.101,1.599-2,2.099c-1.399,1.5-2.8,2.801-4.2,4.202
	c-1.8,2-4,3.5-5.8,5.399l-2.899,2.699c-4.801,3.5-8.014,6.776-13.801,11.199c-1.4,0.765-2.338,1.702-4.338,2.702
	c0-1.375,0.038-12.062,0.038-13.901c0-1.099-0.2-1-0.399-1.399c-1.801-2.8-4.801-4.5-7.201-6.699c-0.1-0.601,0.601-0.901,1-1.202
	c0.9-0.599,1.801-1.199,2.601-1.898c3.2-2.5,6.601-4.7,9.7-7.399l2.8-2.202c1.2-0.699,2-1.798,3.2-2.599l3.4-3.601
	c0.799-1.099,2.199-1.599,2.699-2.801l4.6-4.099c1.101-1,2.101-2.101,3.101-3.3c2.3-2.2,4.3-4.7,6.601-6.899
	c2-2.401,3.899-5,6.299-7c1.4-1.801,3.4-3.5,4.5-5.601c2.301-2.899,4.4-6,7.101-8.7c0.8-0.401,1.601-1.199,2.399-0.601
	C308.924,325.218,309.123,326.019,309.424,326.718"/>
<path fill="#FFD520" d="M171.823,330.917c2,1.801,3.801,3.901,5.6,6c1.1,1.801,2.6,3.301,3.9,5.102c1.6,2.101,3.2,4.3,5.2,6.101
	c1.2,1.199,2.5,2.298,3.4,3.699c2.201,2.301,4.5,4.5,6.9,6.599c1.4,1.5,3.2,2.901,4.7,4.301c2.101,2.199,4.5,4.101,6.8,5.901
	c3.5,2.899,7,5.899,10.9,8.199c2.6,2.2,5.6,3.899,8.2,6c-2,1.7-4.4,3.099-6.299,5.099c-0.601,0.801-0.901,1.118-1.567,2.265
	c0,0,0,13.688,0,15.082l-1.933-1.245c-1.701-1.399-3.701-2.2-5.301-3.7c-0.9-0.901-2.1-1.3-2.9-2.3
	c-1.4-1.102-2.799-2.102-4.299-3.2c-2.5-2.3-4.801-4.8-7.5-6.901c-1.701-1.5-3.301-3.199-5-4.699
	c-1.401-1.301-2.801-2.899-4.101-4.399c-2.1-1.8-4-4.101-5.6-6.199c-3.1-3.101-6-6.301-8.5-9.601c-1-2-1.2-4.399-2-6.5
	c0.8-1.2,2.1-2.2,3.201-3.399c0.699-0.801,1.799-1.401,2.599-2.202c0.7-0.898,1.6-1.5,2.401-2.298
	c-0.201-1.101-1.401-1.702-2.101-2.401l-3.899-3.599c-1.5-1.101-2.901-2.5-4.101-3.901c-2.3-2.899-4.7-5.801-5.2-9.599
	c0.1-0.702,0-1.601,0.801-2c1.199-0.5,2.099,0.599,3.099,1.099L171.823,330.917"/>
<path fill="#FFD520" d="M311.317,355.525c-0.301,1-1.595,2.794-2.095,3.693c-1.799,1.699-2.799,3.801-4.399,5.401l-0.399,0.199
	v-0.601c0.299-2.199,1.1-4.399,1.5-6.599c0.299-2.202,1-4.202,1.6-6.202l-0.1-1c-2.201-1.199-4.301-2.599-6.601-3.298
	c-0.3-0.301-1.2-0.301-0.899-0.901c1.199-1.199,1.799-2.699,3.1-3.899c1.199-1.3,2.5-2.601,3.4-4.199l1.799-2.101l0.701-1.399
	c1-0.801,1.482-2.305,2.383-3.105C311.307,333.786,311.317,352.37,311.317,355.525"/>
<path fill="#FFD520" d="M174.124,345.718c0.799,0.801,1.899,1.401,2.299,2.401c0,0.599-0.5,1-0.9,1.298
	c-0.1-0.099-0.399-0.099-0.5,0.102c-0.1,0.101,0,0.3,0,0.398l-1.3,1.401l-2.8,2.801c-0.5,0.899-1.799,1.199-1.4,2.298
	c2.101,4.801,3.101,10.102,4.7,15.102c0.1,0.101-0.2,0.199-0.099,0.398c-1.601-0.798-2.901-2.599-4.201-4.099
	c-1.799-2.199-4.4-5.392-5.2-7.992c0-3.666-0.1-24.108,0-24.108C167.523,338.917,170.723,342.819,174.124,345.718"/>
<path fill="#FFD520" d="M247.623,384.917c1.9,1.801,4.2,3.301,5.4,5.602l-0.1,0.199c-1.701,1.199-4.238,2.426-6.139,3.026
	c0,0,0-7.089,0-8.75C246.648,384.656,247.424,384.718,247.623,384.917"/>
<path fill="#FFD520" d="M229.057,394.514c-1.5-0.099-2.933-0.895-4.334-1.395c-1-0.702-2.099-1-2.9-2v-0.301
	c2-2,4.634-4.021,7.234-5.221C229.057,387.014,229.057,392.952,229.057,394.514"/>
<path fill="#FFD520" d="M253.035,415.057c-2.399,2.5-4.812,3.161-7.712,4.462c-3.399,1.101-7.8,1.5-11.3,0.601
	c-1.7-0.401-3.5-0.702-5.1-1.5l-2.5-1.202c-1.4-1-3.2-1.699-4.299-3.099c0,0,0-18.012,0-19.262l0.5,0.062
	c2.5,1.099,5.199,2.099,7.799,2.899c2,0.5,4,0.898,6.101,1h2.199l2.801-0.301c2.1-0.399,4.199-1,6.199-1.699
	c1.701-0.899,3.613-1.704,5.312-2.505C253.035,395.807,253.035,413.307,253.035,415.057"/>
<path d="M207.223,212.819c0.6,3.2,2.7,6,5.2,8.3c0.5,0.1,0.6,0.6,1,0.9l3.201,1.9c1.299,0.8,2.799,1.4,4.199,2.1
	c2.301,1.2,4.7,2.5,6.7,4.4c1.101,1.1,2.5,2.2,3.601,3.4c2.199,2.2,4.299,4.801,5.8,7.5c1.5,2.7,2.899,5.4,4.5,8
	c0.799,1,1.5,2.4,2.799,2.7l2.101,0.7c1.899,0.9,3.8,2,5.7,3c1.3,0.8,2.6,1.5,3.6,2.6l2,1.7h0.4v0.3c4.6,4,7.1,9.2,10.3,14.099
	c1.2,1.5,2.2,3.102,3.5,4.602c2.5,2.101,5,4.199,8.101,5c0.799,0.101,1.6-0.102,2.299,0.5c0.301,0.101,0.9-0.102,0.9,0.398
	l-0.1,0.401l-2.7,1.5c-0.899,1-2,1.7-3,2.599c-2,1.901-4.101,3.602-6.2,5.602c-2.1,1.601-3.8,3.699-5.6,5.5
	c-2.2,2.101-4.1,4.398-6.301,6.601c-0.699,1.099-1.899,2.099-2.799,3c-1.4,1.699-2.701,3.399-3.601,5.298v0.301
	c-0.399,0.101-1,0.101-1.399,0c-1.9-1.5-3.5-3.301-5.201-5.099c-2.1-2.202-3.699-4.801-5.199-7.301c-2.1-2.401-3.1-5.3-5.3-7.401
	c-0.9-1.199-1.5-1.898-2.4-3.099c-0.3-0.5-0.8-0.8-1-1.101c-0.199-0.099-0.199-0.399-0.3-0.5l-0.2-0.099
	c-1.199-1.601-3.3-2.901-5-3.901c-0.6-0.301-1.5-0.699-2.199-0.899l-0.101,0.301l0.3,0.298c1.4,1,3.6,2,4.7,3.301
	c2.5,2.5,5.101,4.601,6.601,8c1.899,3.301,3.8,6.301,6.699,9.101c0.101,0.2,0,0.599-0.3,0.599c-1-0.298-1.7-1.199-2.6-1.699
	l-2.4-1.699c-1.7-1.899-3.5-3.899-4.7-6.102c-3.5-5.199-8.5-10.398-14.1-13.199c-2.4-1.099-4.8-2.199-6.7-4.301
	c-2.1-2.199-3.899-4.5-5.399-7.099c-1.201-1.601-2.401-3.101-3.401-4.699l-1.599-1.601l-1-1.102c-2.901-3.398-6.801-5.699-10-8.698
	c-1-1.1-1.801-2.1-2.701-3.1c-0.1-0.301,0.1-0.601,0.4-0.601c1.1,0.2,1.7,1.398,2.7,1.8c4.8,1.801,9.3,5.099,12.3,9.599
	c1.7,3.202,3.801,6.301,5.801,9.301c0.299,0.199,0.5,0.801,0.799,0.5c-0.5-2-1.9-3.899-2.7-5.899c-2-4-4.7-8.101-8.5-10.8
	c-0.9-0.602-2-0.7-2.9-1.399c-5.4-2.4-11.1-5.301-15-10.301c-1-2.1-2.699-3.901-3.1-6.199c0.5-0.801,1.6-1.101,2.3-1.702
	c1.9-1.198,3.4-2.898,5.101-4.298c3.199-2.701,6.099-6.001,9.299-8.701c1.3-1.4,2.6-2.8,3.9-4.3l2.1-2.4c1.1-1.1,1.9-2.1,2.9-3.1
	c0.5-0.8,1.2-1.3,1.6-2.1c0.5-0.7,0.8-2,2-1.9L207.223,212.819"/>
<path d="M289.723,212.319c0.5,1.1,0.4,2.4,0.9,3.5c0.6,2,1,4,1.301,6.1c0,2.3-0.301,4.6-1.5,6.5c-1.101,1.6-2.701,3.5-4.9,3.7
	c-0.9,0.3-1.801,0.2-2.7-0.2c-1.7-1.2-2.3-3.3-1.8-5.3c0.3-2.1,1.199-3.8,2.3-5.5c1.8-2.6,3.601-5.4,5-8.3c0.399-0.7,0.3-1.6,1-2.1
	C290.123,210.819,289.523,211.819,289.723,212.319"/>
<path d="M299.023,211.119c-0.7,1.3-1.301,2.6-1,4.1c0.5,2,0.8,4.1,1.6,6.1c0.301,1.4,0.801,2.8,0.7,4.3c-0.2,2.4-0.899,4.8-3.101,6
	c-1.699,0.6-3.699,1.4-5.6,0.7c-0.699-0.2-1.3-0.4-1.9-0.8c-0.1-0.2-0.199-0.5,0.101-0.7c1.2-1.2,2.399-2.2,3-3.8
	c1.601-3.2,1.3-7.3,2.601-10.7c0.799-1.9,1.799-3.9,3.1-5.6C298.823,210.719,299.023,210.919,299.023,211.119"/>
<path d="M280.723,213.619c0.9,1.8,1.601,4.1,1.101,6.3c-0.399,2.3-1.8,4.2-2.7,6.3c-0.5,1.5-0.5,3.5,0.1,4.9
	c0.101,0.3-0.299,0.6-0.6,0.6c-1.699,0.3-3.1-0.6-4-1.9l-1.1-2v-2.4c0.4-2.4,0.9-4.7,2.1-6.6c0.9-2.1,2.6-3.8,2.9-6.1
	c0.1-0.5,0-1.2,0.4-1.5C279.924,211.619,280.424,212.619,280.723,213.619"/>
<path d="M302.723,233.918c0.134,1.526,0.134,2.86,0.134,4.235c-3.899-0.101-33.667,0-33.667,0c0-1.375,0-3.042,0-4.334
	C269.189,233.819,299.981,233.819,302.723,233.918"/>
<path d="M283.023,239.62l18.8,0.199c0.3,1.2,0,2.5-0.2,3.7c-1.199,4.601-3.1,9-6.6,12.601c-1.1,1-2.301,2-3.7,2.6
	c-1.3,0.999-2.899,1.3-4.399,1.499v0.101c-0.101,0-0.201-0.101-0.301,0l0.1,0.099h-0.1c0,0.301,0.5,0.202,0.7,0.202h-0.101
	c1.4,0.199,2.701-0.5,4-0.801c0.9,0.2,1,1.399,1.701,2c1.199,1.399,2.699,2.099,4.299,2.801c0.101,0.199,0.201,0.599,0,0.899
	l-0.699,0.3l-5.301-0.5c-1.899,0.099-3.699,0-5.5-0.101c-2.899,0.101-5.899,0.199-8.799,0.5c-0.4-0.199-0.5-0.599-0.601-1
	c0.601-0.599,1.399-0.899,2.101-1.399c1.299-0.901,2.6-2,3.399-3.401h1c-0.5-0.798-1.8-0.898-2.601-1.398l-2.5-2.2
	c-1-1.3-2.399-2.5-3.299-4c-0.801-1.901-2.101-3.699-2.601-5.699c-0.5-2.202-1-4.4-0.8-6.801c0.699-0.5,1.699-0.1,2.6-0.3
	C276.723,239.417,280.023,239.62,283.023,239.62"/>
<path d="M193.323,360.12c0,0.199-0.3,0.399-0.4,0.599c0.5,0.401,1.8-0.301,1.9,0.699l0.301,2.102l0.199,0.199h2.6
	c0.5,0.901,0.4,2,0.5,3.101c-1.7,2.5-3.9,4.801-5.6,7.301c-0.1,0.399,0.5,0.599,0.4,1.099c-0.7,0.199-1.3,0.401-2.099,0.401
	c-0.5-0.301-0.901-0.601-1.301-1.101c0.7-1.5,2-2.602,2.9-4c0.2-0.399-0.099-0.7-0.4-0.899c-0.1-0.101-0.4-0.101-0.5,0.099
	l-1.9,2.301c0.201,0.601-0.5,0.699-0.9,0.8c-0.7,0.2-1.5,0.099-2-0.5c-0.7-0.3-0.5-1.101-0.1-1.5c0.8-1.101,2-2.101,2.5-3.401
	c0-0.298-0.4-0.398-0.6-0.599l-0.4,0.099l-2.9,3.602c-0.3,0.3-0.6,0-0.899-0.2l-2-1.699v-0.301c0.599-0.101,1.299,0,1.799-0.199
	c-0.799-0.5,0.201-1.101,0.4-1.5l1.4-1.901c0-0.5-0.599-0.599-0.7-1c0.5-0.5,1.4-0.399,2-0.699l1.8-1.801
	c0.6-0.199,1.4-0.199,2-0.399c-0.4-0.199-1.199-0.101-1.199-0.699c0-0.801-0.301-1.801,0.099-2.5
	C191.323,358.319,192.423,359.019,193.323,360.12"/>
<path d="M288.123,359.62c0,0.399,0.1,1.199-0.6,1.099l-0.5,0.101c0.199,1.801,2.4,0.899,3.6,1.2c0.7,0.699,2.2,1.398,1.801,2.601
	l-0.101,1.298c-0.5,0.602-1,1.202-1.7,1.602l-0.8-0.5c-0.3,0.5,0.101,1.101-0.2,1.5c-0.4,0.3-0.699,1.3-1.4,0.8l-0.199-0.199
	c-0.5,0.798-0.4,2-1.5,2.399c-1.1-0.5-1.7-1.7-2.7-2.5c-0.3-1.2,0.3-2.7,0-4c-0.3,0-0.5-0.102-0.7,0c0.1,0.3,0.301,0.8-0.1,1.101
	c-0.301,0.399-0.7,0.798-1.2,0.699l-0.101-0.699l0.301-3.101c0.699-0.602,1.699,0,2.6-0.102c1.5,1.102,2.5,2.702,4,3.801
	c0.301,0,0.6-0.199,0.6-0.399c-0.1-0.199-0.199-0.5,0-0.699l2-0.202c-0.1-0.5-0.699-1-1.199-1.298l-2.7-0.101
	c-0.601-0.5-1.399-1.102-1.399-1.899l0.199-3.101c0.5-0.301,1.2,0,1.801,0L288.123,359.62"/>
<path d="M278.823,366.319c0.5-0.101,0.7-0.601,1.2-0.601c0.3,0.601,0.1,1.5,0.3,2.199c0.899,1.301,2.2,2.401,3.399,3.5
	c0.5,0.202,0.801-0.699,1.301-0.398c0.199,0.601,0.3,1.398,0.1,2c-0.4,0.5-0.9,1.398-1.6,1c-2.4-2.2-4.6-4.801-6.9-7.2
	c-0.199-0.699-0.199-1.601,0.1-2.3l0.301,0.101L278.823,366.319"/>
<path d="M275.223,367.417l-0.1,2.102c-0.3,0.199-0.6-0.301-0.9-0.5c-1.1-0.7-0.6-2-0.399-3c0.5,0.101,0.8,0.699,1.2,1
	L275.223,367.417"/>
<path d="M281.323,373.62c0.5,0.298,1.101-0.702,1.2,0.199c0,0.7,0.4,1.801-0.4,2.2c-0.3,0.3-0.699,0.601-1,0.3
	c-1.5-1.5-2.699-2.901-4.199-4.199c-0.201,0.099,0.1,0.599-0.101,0.899c-0.2,0.398,0,1.398-0.7,1.101l-1-0.801
	c-0.3,0.399,0.2,1,0.6,1.301c0.9,0.798,1.5,1.899,2.5,2.399c0.301-0.102,0.701-0.5,0.9,0c0,0.699,0.5,1.699-0.3,2.199
	c-0.3,0.401-0.8,0.699-1.2,0.301l-4.6-4.801c-0.4-0.699-0.301-1.599-0.1-2.399c0.399-0.401,0.799,0.5,1.199,0.5
	c0.2-0.8,0.2-1.699,0.6-2.3c0.701,0.199,0.9,1,1.701,1.101c0.1,0-0.201-0.202-0.201-0.401c-0.1-0.801-0.1-1.699,0.201-2.399
	C278.223,370.218,279.723,372.019,281.323,373.62"/>
<path d="M200.723,371.718c0,1.101,0.5,2.601-0.599,3.401l-2.401,3.099c-0.099,0.401,0.5,0.601,0.2,1
	c-0.5,0.401-1.2,0.301-1.799,0.401c-0.601,0-0.901-0.601-1.201-1c0-0.301,0.3-0.801-0.2-0.901c-0.8,0.101-1.5-0.099-1.9-0.699
	c-0.5-0.301,0-0.801,0.1-1.102c0.6-0.798,1.3-1.798,2.1-2.398c1.101-0.2,2.5,0.199,3.5-0.399c-0.1-0.202,0.2-0.202-0.1-0.301
	c-0.799,0.301-1.299-0.601-1.799-1.101c-0.101-0.399,0.399-0.5,0.699-0.5c1,0,2.2-0.099,3.2,0.101L200.723,371.718"/>
<path d="M269.623,378.62l0.1-0.101l0.201-3.5l0.299-0.301l2.801,0.601l0.3,0.301l0.2,3.899c0.199,0.398,0.6,0.699,1,1
	c0.699-0.102,1-1.2,1.8-1c0.101,0.601,0.101,1.398,0,2.101l-1.8,1.599c-0.801-0.199-1.301-1.099-1.9-1.5l-0.199,0.101
	c-0.301,1.301-0.201,2.801-0.5,4.099l-1.301,1.202l-2.3-0.401c-0.7-0.699-1.101-1.5-2-2l-1,0.601c-0.399-0.5,0-1.5-0.5-1.901
	c-0.399,0-0.601,0.702-1,0.401l-0.2-2c-0.6-0.601-1.4-1.199-1.4-2.199l-0.399,0.5l-2.7-0.101c-0.3-0.5,0.4-0.7,0.6-1.102l1.9-1.599
	c0.301-0.199,0.4,0.2,0.4,0.399c0.1,0.301,0.1,0.699,0.199,0.901c0.201-0.401,0.101-1.202,0.301-1.702c0.4-0.398,0.6,0.301,1,0.401
	c0.9,1,1.8,2,2.8,2.801c0.8-1.301-0.601-2.101-1.2-3c-0.1-0.801-0.1-1.702,0.1-2.401c0.201-0.099,0.4,0.101,0.601,0.301
	C267.023,376.218,268.323,377.519,269.623,378.62"/>
<path d="M205.523,375.819c0,0.899,0.601,2,0,2.899l0.101,0.101c0.399-0.101,0.599-0.401,1.099-0.5c0.6,0,1.3-0.199,1.901,0
	c0.199,0.399-0.301,0.7-0.201,1.099c0.6,0.301,1.5-0.298,1.9,0.401v1.7l-3.4,4.398c0,0.301,0.5,0.5,0.3,0.901
	c-0.599,0.301-1.5,0.5-2.2,0.301c-0.3-0.401-1.1-0.601-0.8-1.301c1.2-1.699,2.6-3.199,3.8-4.8c0-0.301-0.1-0.301-0.3-0.5
	l-0.599,0.199c-1.401,1.5-2.301,3.301-4,4.5c-0.601-0.099-1-0.5-1.401-0.899c0-0.199-0.099-0.401,0.1-0.5
	c-0.3-0.601-0.699,0.301-1.1,0.301l-3.3,0.599c-0.799-0.199-1.5-0.899-1.9-1.599c0.4-0.5,1.101-0.601,1.7-0.601l1.401,0.8
	c0.399,0,0.799-0.5,1-0.901c0.299-1-1-0.5-1.401-0.898c-0.3-0.301-1-0.7-0.7-1.2l0.5-1c1.2-1.199,2.101-2.401,3.3-3.601
	c1.301-0.399,2.7-0.599,4-0.399L205.523,375.819"/>
<path d="M214.723,383.019c0.3,0.898,0.3,2,0.2,2.898l-3.1,4.102c-0.1,0.3,0.4,0.601,0.2,0.898c-0.7,0.102-1.5,0.602-2.1,0.202
	c-0.6-0.301-1.1-1-0.6-1.5c-0.4-0.301-1.1-0.101-1.6-0.301c-0.3-0.3-0.9-0.601-0.9-1.101c0.5-1.099,1.5-2,2.301-2.899
	c1.199-0.3,2.599,0,3.699-0.401c0.1-0.199,0.1-0.5,0-0.699c-0.3,0.199-0.9,0.401-1.199,0c-0.301-0.301-0.901-0.599-0.701-1.099
	c0.6-0.301,1.4-0.101,2.1-0.202L214.723,383.019"/>
<path d="M237.123,402.12c0.301,0.298-0.199,0.599-0.199,0.798c-0.3,0.401-0.601,1-1.101,1.102c-0.1,0.3,0.1,0.8-0.3,0.8
	c-0.3-0.199-0.1-1.101-0.8-0.8c-0.5,0.699-0.2,1.699-0.3,2.601c0.1,0.298-0.1,0.798,0.3,0.798c0.3,0.102,0.7,0.102,0.6-0.298l0.2-2
	c0.101-0.101,0.2,0,0.2,0.099c-0.099,0.801,0,1.5,0.2,2.199c0.3,0.202,0.8,0,1.001,0.401l-1.101,1.7c0,0.601-0.199,1.3,0.1,1.898
	c-0.1,0.202-0.2,0.401-0.4,0.202c-0.3-0.5,0.101-1.301-0.2-1.901c-0.1-0.301-0.5-0.199-0.699-0.199
	c-0.301,1.199-0.101,2.398-0.101,3.699l0.2,0.199l2.6,0.202c0.2,0.798-0.8,1.298-1.199,1.899c-2.201,0-4.301,0.101-6.301-0.102
	c-0.199-0.199,0-0.398,0.2-0.5c0.5-0.5,1.4-0.898,1.5-1.699c0.101-1.199,0.101-2.399-0.1-3.5c-0.299-0.399-1.1,0.101-1.299-0.599
	l1.299-1.601l0.201-2.5l0.799-1.2c-0.299,0.2-0.799,0.599-1.1,0.2l-1.6-1.602c-0.099-0.298,0.2-0.398,0.3-0.398
	c1.2-0.102,2.4,0,3.5,0.101c0.101,0.5-0.3,0.699-0.5,1.099c0.8-0.199,1.2-1.399,2.2-1.199L237.123,402.12"/>
<path d="M244.023,403.519c0.199,0.8,0.1,1.8,0.199,2.699c0.4,0.301,1.101,0,1.301,0.5l-1.301,1.801v4.8c0.301,0.399,1,0,1.301,0.5
	c-0.301,0.599-0.6,1.2-1.301,1.599c-0.6,0-1.5,0.202-1.799-0.398c-0.301-3.301,0-6.399-0.101-9.801
	c0.101-0.801,0.899-1.301,1.5-1.801L244.023,403.519"/>
<path d="M241.723,407.319c0.101,0.599-0.6,0.899-1.1,1.2c-0.3,0-0.5-0.399-0.9-0.5c-0.299,0.3-0.199,1.101-0.1,1.5l2,1.898v2.5
	c-0.4,0.602-1,1.102-1.6,1.5c-0.7,0-1.5,0.202-2.2-0.099c-0.3-0.601-0.399-1.601-0.101-2.199c0.5-0.301,0.9,0.5,1.301,0.699
	l0.6,0.399c0.2-0.5,0.2-1.301,0-1.801l-1.8-1.798c-0.101-0.702-0.3-1.5-0.101-2.101l2.5-2.399
	C240.823,406.319,241.323,406.819,241.723,407.319"/>
<path fill="#ED1C2E" d="M288.523,219.319c0.4,3.4,0.6,7.7-1.9,10.4c-0.6,0.5-1.5,0.3-2,0c-1-0.6-0.8-2-0.8-3l0.101-1.2
	c0.399-2.8,2.299-5,4.199-7.1C288.623,218.419,288.323,219.019,288.523,219.319"/>
<path fill="#ED1C2E" d="M278.424,221.319c-0.801,1.5-1.5,3.2-2.201,4.7l-0.1,0.1c-0.199-0.3-0.199-1-0.199-1.4
	c0.199-2.4,1.399-4.4,2.899-6.1C279.023,219.319,278.623,220.419,278.424,221.319"/>
<path fill="#ED1C2E" d="M298.223,225.819c-0.199,1-0.299,2.1-1,2.8c-0.899,0.9-2,1.6-3.299,1.5v-0.2c1-1.8,2-3.7,2.399-5.9l0.5-2.8
	l0.101-0.1C297.823,222.419,298.023,224.219,298.223,225.819"/>
<path fill="#00693F" d="M297.123,243.417c0.4,0.102,1-0.099,1.301,0.202c-0.301,2.899-1.9,5.298-3.301,7.798
	c-0.6,0.901-1.6,1.602-2.3,2.5c-2.101,2.401-5.2,3.5-8.399,2.702c-1.9-0.4-3.301-1.801-4.801-2.9c-1.199-1.2-2.1-2.7-2.8-4.2
	c-1.101-1.602-1.5-3.5-2.2-5.3c-0.1-0.4-0.199-1,0.4-0.9h1.199C283.223,243.319,290.223,243.219,297.123,243.417"/>
<polyline fill="#FFFFFF" points="232.14,336.004 233.188,334.933 227.644,329.518 226.596,330.59 232.14,336.004 "/>
<polyline fill="#FFFFFF" points="233.136,330.513 232.063,329.464 226.648,335.01 227.721,336.058 233.136,330.513 "/>
<path fill="#FFFFFF" d="M206.624,215.919c2.099,4.4,5.399,8.9,10,11.3c2.599,1.5,5.399,2.6,8.099,3.9c3.2,1.9,6.2,4.299,8.3,7.501
	c2.9,3.798,5,8,7.3,12c0.3,0.399,0.8,1,0.5,1.5c-2.601,2.6-5.1,5.399-7.699,8c0,0.298,0.299,0.5,0.5,0.699h0.199
	c2.6-2.8,5.399-5.6,8.2-8.199l0.5-0.101c2.8,0.8,5.3,2.3,7.8,3.7c6.101,3.999,10.399,9.9,13.601,16.1c2.299,4.801,6,9.2,10.699,12
	c1.2,0.599,2.4,0.899,3.5,1.399v0.301c-7.6,6.601-15.199,13.398-22.1,20.8c-1.801,1.899-3.4,4.099-5.1,5.899
	c-0.5,0.101-0.701-0.5-1.101-0.699c-1.8-2.301-2.899-4.602-4.3-7.102c-0.801-2-1.801-3.898-2.9-5.798c-0.699-1.202-1.3-2.5-2-3.801
	c-2.5-4.3-5.9-8-10.1-10.699c-0.899-0.301-2-0.702-2.899-1.202c-0.801-0.199-1.601-0.599-2.401-0.898c-1.8-0.399-3.7-0.602-5.5-1.2
	c-1.4-0.3-2.8-0.699-4-1.401c-0.3-0.099-0.2-0.5,0-0.699c1.8-1.899,3.3-3.599,5.2-5.399c0.8-1.199,2.1-2,2.9-3.101
	c0.1-0.301-0.1-0.599-0.4-0.599c-0.9,0-1,1-1.799,1.5l-6.801,6.899c-0.3,0.199-0.699,0.199-1,0c-1.6-2.301-2.199-5-3.1-7.5
	c-0.9-4.102-2-8-4.5-11.399l-3.2-4.202c-2.3-2.198-5-3.698-7.899-4.698c-1.601-0.4-3.201-0.9-4.801-1.4
	c-0.3-0.6-0.199-0.199-0.199-0.199c-2-0.601-4-1.202-5.801-2.301c-1.699-1.199-3.199-2.5-4.4-4.199c0.1-0.9,1.3-1.101,1.8-2
	c3.5-2.5,6.5-6.101,9.7-9.101c2.5-3,5.5-5.6,8.1-8.4c2.2-2.4,4.7-4.6,6.601-7.1C206.323,215.919,206.523,215.719,206.624,215.919"/>
<polyline fill="#FFFFFF" points="224.323,286.519 224.423,286.417 224.323,286.519 "/>
<path d="M206.323,220.319v0.3l-7.1,7.3c-0.3,0.3-0.599,0-0.8-0.2c-0.1-0.7,0.6-1,1-1.6c2.1-2.2,4.201-4.3,6.3-6.4
	C206.023,219.819,206.323,220.019,206.323,220.319"/>
<path d="M208.223,223.719c0.401,0.4,0.401,0.9,0.401,1.4l-0.401,0.7c-2.099,2.1-4.4,4.5-6.599,6.5c-0.301,0-0.601-0.2-0.701-0.5
	l0.201-0.4l6.299-6.5c0.1-0.3-0.1-0.6-0.4-0.6l-0.7,0.1l-6.4,6.2c-0.299,0.1-0.6-0.2-0.7-0.5l0.2-0.5c2.4-2.4,4.6-4.8,7.1-7
	C207.124,222.919,207.723,223.319,208.223,223.719"/>
<path d="M210.223,225.919c-0.8,1.4-1.9,2.8-2.7,4.2c1-0.4,2-1.5,3-2.1c0.5-0.4,1-1.2,1.5-0.7c0.3,0.2,0.3,0.5,0.101,0.7
	c-0.5,0.7-1.301,0.6-1.701,1.5l-6.4,5.101c-0.399,0.099-0.6-0.301-0.7-0.5l0.4-0.901l5.5-7.7
	C209.523,224.919,210.223,225.519,210.223,225.919"/>
<path d="M215.523,229.619c0,0.3-0.2,0.6-0.5,0.6c-0.6-0.4-1.399-1-2-0.2l-1.7,1.9c0,0.6,1.4,1.3,0.301,1.701
	c-0.601,0-0.901-1.101-1.5-0.5c-0.701,0.899-2.201,1.5-2.201,2.798c0.1,0.401,1,0.702,0.5,1.202c-0.2,0.199-0.5,0.298-0.6,0.1
	c-0.699-0.5-1.1-1.1-1.1-1.802c0.401-1.5,1.901-2.199,2.7-3.499c-0.1-0.5,0.201-0.8,0.5-0.9h0.6c1.3-0.9,2.2-3.3,4-2.4
	C214.923,228.919,215.423,229.219,215.523,229.619"/>
<path d="M218.223,230.719c0.1,0.5,0.3,1.2-0.099,1.7c-0.5,0.4-0.601,1.499-1.401,1.201c-1.3-1.001,1.2-1.601,0.401-2.501
	c-0.801,0-1.101,0.6-1.701,1.2c-0.9,1.5-0.5,3.599-1.9,5c-0.7,0.801-1.5,1.5-2.6,1.4c-0.6-0.1-1.1-0.6-1.299-1.1l-0.301-1.101
	c0.4-0.602,1-1.3,1.6-1.399c0.201-0.202,0.5-0.301,0.701-0.101c0.599,0.701-0.601,1.101-0.801,1.8c-0.1,0.301-0.199,0.801,0.301,0.9
	c0.899-0.1,1.5-1,2-1.802c0.5-0.798,0.399-1.899,0.699-2.899c0.4-1.3,1.4-2.8,2.9-3.1
	C217.323,229.919,217.923,230.219,218.223,230.719"/>
<path d="M219.923,231.519c0.8,0.7,1.8,1.5,2.201,2.399c0.699-0.298,1.299-1.799,2.099-0.699v0.5l-7,7.3
	c-0.099,0.101-0.4,0.2-0.599,0c-0.201-0.2-0.5-0.602-0.201-0.8c1.701-2,3.701-3.802,5.201-5.801l-0.901-0.5l-1.099,0.901
	l-5.601,5.801c-0.3,0.199-0.6-0.202-0.8-0.301v-0.5l6.401-6.8c0.199-0.6-0.801-0.8-0.301-1.3
	C219.523,231.519,219.723,231.419,219.923,231.519"/>
<path d="M194.423,233.62c0.201,1.199-0.799,2.298-1.7,2.899c-0.4,0.101-0.7-0.2-0.8-0.5c0.3-0.8,1.3-1.2,1.5-2.101
	c0-0.099-0.2-0.298-0.299-0.298l-0.701,0.298c-1.9,1.702-3.7,3.5-5.5,5.301c0,0.198-0.2,0.5,0.1,0.6c0.9,0,1.601-0.901,2.3-1.401
	c0.301-0.099,0.6,0.102,0.801,0.401c-0.201,0.9-1.101,1.5-1.801,1.9c-0.6,0.4-1.4,0.5-2,0c-0.699-0.302-0.699-1.1-0.6-1.7
	c1.1-2,3-3.399,4.6-4.899c0.801-0.801,1.6-1.701,2.7-1.701C193.723,232.419,194.323,232.918,194.423,233.62"/>
<path d="M227.124,235.219c0.399,0.901-0.101,1.901-0.801,2.5c-0.4,0.1-0.5,0.8-0.9,0.6c-1.1-1.1,1.1-1.6,0.701-2.699
	c-0.201-0.301-0.5-0.202-0.701-0.101c-2,1.898-3.799,3.8-5.6,5.898c-0.1,0.302-0.1,0.702,0.301,0.802
	c1.199-0.2,1.799-1.6,2.699-2.302c0.801-0.5-0.8-1.198,0.4-1.5c0.5,0.102,0.901,0.702,1.2,1.102l-0.1,0.3
	c-1.5,1.2-2.6,4.099-4.8,3.301c-0.5-0.202-0.8-0.702-0.8-1.202c0-1.398,1.1-2.198,2-3.099l3-3.199c0.401,0.1,0.3-0.5,0.6-0.601
	c0.4-0.3,0.801-0.601,1.2-0.601C226.223,234.418,226.723,234.719,227.124,235.219"/>
<path d="M196.523,236.019c0.4,0.5,0.8,1,0.601,1.7c-0.101,0.9-0.901,1.4-1.5,2l-2.301,2.3c0.1,0.101,0.1,0.2,0.1,0.3
	c-0.1,0.2-0.2-0.1-0.299-0.1c-1.101,0.8-1.901,2-3.201,2.4c-0.6,0-1.1-0.301-1.4-0.702c-0.399-0.398-0.6-1.099-0.399-1.599
	l0.899-1.3l5.3-5C194.923,235.62,195.923,235.519,196.523,236.019"/>
<path d="M230.523,237.62c0.5,0.5,0.5,1.298,0.4,1.899l-0.799,1l-6.201,6c-0.299,0.101-0.5-0.2-0.6-0.399l0.1-0.4l3-3.2
	c0.201-0.399-0.299-0.7-0.6-0.899c-1.199,0.899-2.199,2.298-3.4,3.199c-0.4,0.099-0.7-0.1-0.799-0.401l0.099-0.398
	c1.3-1.3,2.6-2.399,3.6-3.899C227.124,239.417,228.223,235.819,230.523,237.62"/>
<path d="M199.923,238.417c0.5,0.202,0.9,0.702,0.9,1.302c0,0.698-0.5,1.3-1,1.698c-2.199,2-3.9,4.302-6.3,5.901
	c-0.2,0-0.5-0.199-0.6-0.401l0.1-0.5l6.4-6.298c0.1-0.101,0.201-0.4,0-0.601c-0.299-0.2-0.799-0.2-1.2,0l-6.2,6.101
	c-0.399,0.199-0.6-0.301-0.8-0.5l0.1-0.4c2.6-2.4,4.6-4.9,7.4-7.1C199.223,237.719,199.423,238.319,199.923,238.417"/>
<path d="M233.723,242.219c0.1,0.3-0.099,0.6-0.4,0.698c-0.3,0-0.5-0.298-0.8-0.398c-2.399,2-4.8,4.398-7.2,6.5
	c-0.4,0.101-0.5-0.399-0.6-0.7c2-2.3,4.7-4.5,6.8-6.8c-0.2-0.5-1-1.102-0.1-1.5C232.423,240.519,233.023,241.519,233.723,242.219"/>
<path d="M204.023,241.219c0.2,0.698-0.1,1.4-0.399,2c-0.401,0.3-0.801,1-1.301,0.6c-1-1,1.4-1.6,0.4-2.5
	c-2.9,0.801-1.7,4.301-3.4,6.099c-0.8,0.702-1.6,1.401-2.6,1.5c-0.599-0.198-1.2-0.398-1.4-1c-0.5-1.099,0.4-2.099,1-2.798
	c0.301-0.202,0.7-0.202,0.9,0c0.8,0.798-0.8,1.298-0.8,2c-0.1,0.298-0.1,0.6,0.201,0.699c0.599,0.099,0.899-0.5,1.399-0.5l1.101-2
	c0.399-1.699,0.399-3.8,2.299-4.699C202.223,240.12,203.624,240.12,204.023,241.219"/>
<path d="M208.023,243.12c0.101,0.199,0.101,0.399-0.1,0.6c-0.7,0.6-1-0.9-1.799-0.4c-0.801,0.5-1.701,1.4-2.301,2.2
	c0.1,0.601,1,0.8,0.6,1.398c-0.6,0.702-1-0.398-1.5-0.599c-0.9,0.7-1.799,1.599-2.6,2.5c-0.3,0.801,1.5,1.4,0.2,2
	c-0.6-0.1-1-0.901-1.3-1.401c-0.2-1.798,1.901-2.698,2.8-4c-0.2-0.298-0.1-0.599,0.2-0.798h0.6c1.4-0.9,2.301-3,4.1-2.4
	L208.023,243.12"/>
<path d="M210.923,244.719c0.3,0.4,0.3,1.198,0,1.6c-0.799,1.099-1.9,2.4-3.299,2.4c0,0.5,0.099,1.1-0.401,1.4l-2.9,2.798
	c-0.3,0.102-0.699-0.099-0.699-0.398l0.099-0.399l2.8-2.9c0.2-0.302,0-0.7-0.2-1c-0.8,0-1.199,0.9-1.8,1.3l-1.899,1.8
	c-0.301,0.099-0.601-0.3-0.701-0.5l0.201-0.5c1.099-1.1,2.699-2.199,3.399-3.6c1.5-0.802,2.5-2.302,3.8-3.302
	C210.023,243.519,210.523,244.12,210.923,244.719"/>
<path d="M234.423,243.917l-0.2,0.5c-2.7,2.5-4.8,4.702-7.3,7c-0.4,0.102-0.7-0.298-0.9-0.599l0.101-0.3c2.399-2.5,5-4.899,7.5-7.102
	C233.923,243.417,234.223,243.719,234.423,243.917"/>
<path d="M213.423,246.219c-0.799,1.4-2.2,2.698-2.9,4.1l0.101,0.099l4.099-2.898c0.3,0,0.5,0.3,0.6,0.5l-0.1,0.398
	c-2.7,2.202-5.4,4.202-8.3,6.202c-0.4,0.1-0.6-0.202-0.7-0.5v-0.301l5.8-7.5c0.3-0.3,0.601-0.901,1-0.6L213.423,246.219"/>
<path d="M235.423,247.019c0.201,0.398,0.201,1.101,0.1,1.5l-0.899,1.2l-5.301,5c-0.5,0.198-1.3,0.4-1.8,0.1
	c-0.6-0.3-0.8-1-0.899-1.6c0.099-1.7,1.899-2.7,2.799-3.7c1.6-1,2.4-2.899,4.3-3.3C234.423,246.12,235.023,246.519,235.423,247.019"
	/>
<path d="M217.723,249.719c0.3,0.5,0.2,1.1,0,1.5l-6.7,6.6c-0.3,0.099-0.6-0.199-0.7-0.401v-0.298c1.2-1.202,2.301-2.202,3.2-3.4
	c-0.2-0.302-0.399-0.7-0.8-0.802l-3.4,3.202c-0.3,0-0.6-0.202-0.699-0.5l0.199-0.4c1.301-1.302,2.801-2.4,3.6-4
	c1.5-0.7,2.3-2.9,4.201-2.5L217.723,249.719"/>
<path d="M220.624,253.319c0.099,0.2,0.299,0.4,0.099,0.599c-0.4,0.5-0.8-0.198-1.2-0.198c-2.399,2.1-4.6,4.4-6.899,6.6
	c-0.401,0.099-0.601-0.3-0.801-0.5l0.1-0.401c2.1-2.398,4.6-4.398,6.701-6.698c-0.201-0.4-0.901-1-0.201-1.302
	C219.323,251.917,219.923,252.62,220.624,253.319"/>
<path d="M221.423,255.417l-0.2,0.401l-7.3,7.2c-0.4,0.101-0.6-0.301-0.7-0.602l0.1-0.398c2.4-2.399,4.801-4.899,7.5-7.102
	C221.124,254.917,221.323,255.12,221.423,255.417"/>
<path d="M222.624,257.917c0.599,0.5,0.599,1.302,0.399,2c-1.899,2.202-4,4.102-6.1,6c-0.4,0.401-1.2,0.5-1.7,0.301
	c-0.5-0.301-0.9-0.699-1-1.199c-0.099-0.801,0.2-1.5,0.8-2.102l5-4.898C220.723,257.519,221.923,257.12,222.624,257.917"/>
<path d="M232.124,260.819c0,0.2-0.101,0.5-0.401,0.599c-0.599-0.199-1.2-1.199-1.9-0.398c-0.699,0.601-1.4,1.3-1.9,2.101
	c-0.1,0.599,1.3,0.899,0.4,1.5c-0.6,0.298-0.9-0.601-1.4-0.601c-0.9,0.699-1.799,1.601-2.5,2.5c-0.299,0.898,1.5,1.3,0.201,2
	c-0.801-0.399-1.301-1.2-1.301-2.102c0.301-1.5,1.9-2.199,2.7-3.398c-0.1-0.399,0.2-0.801,0.4-0.899h0.6
	c1.3-0.901,2.3-3.301,4.101-2.301L232.124,260.819"/>
<path d="M234.823,263.218c0.1,0.199-0.1,0.401-0.3,0.5c-0.399,0.101-0.6-0.099-0.899-0.301c-2.401,2.102-4.5,4.5-6.901,6.702
	c-0.3,0.199-0.599-0.101-0.8-0.401l0.1-0.5l6.5-6.599c0.2-0.5-0.899-1.101,0-1.5C233.523,261.417,234.023,262.519,234.823,263.218"
	/>
<path d="M250.323,263.319l-0.101,0.099c-0.1,0-0.1-0.199-0.1-0.199C250.223,263.12,250.323,263.319,250.323,263.319"/>
<path d="M236.023,271.62c0.5,0.399,0.3,1.298,0,1.798c-0.3,0.5-0.601,1-1.2,1.202c-0.199,0-0.5-0.202-0.6-0.5
	c0.2-0.702,1.401-1.301,0.8-2c-3,0.899-1.7,4.298-3.399,6.099c-0.701,0.801-1.601,1.699-2.801,1.5c-0.6,0-1.1-0.599-1.3-1.199
	c-0.2-1.102,0.601-2,1.4-2.7c0.3-0.199,0.6,0.2,0.8,0.399c0.1,0.699-0.8,1.101-1,1.801c-0.099,0.199,0,0.601,0.3,0.601
	c0.8,0,1.3-0.901,1.9-1.401c0.9-2.301,0.701-5.599,3.8-6.199C235.223,271.019,235.624,271.218,236.023,271.62"/>
<path d="M239.623,274.218c0.301,0.401,0.2,1.199,0,1.601c-0.4,0.7-0.9,1.5-1.6,1.899c-0.301-0.099-0.6-0.301-0.7-0.599
	c0.2-0.901,1.5-1.301,1.399-2.301c-0.199-0.3-0.6-0.101-0.799,0c-1.9,1.7-3.8,3.7-5.501,5.7c-0.2,0.199-0.1,0.398,0,0.5
	c1.1,0.101,1.6-1.102,2.4-1.5c0.301,0.101,0.6,0.199,0.7,0.5c-0.3,1-1.2,1.601-2.1,2.101c-0.5,0.199-1.2,0.298-1.6-0.101
	c-0.699-0.399-0.699-1.2-0.6-1.899l0.6-1l4.801-4.801C237.323,273.519,238.924,273.12,239.623,274.218"/>
<path d="M242.323,275.718v0.199c-2.5,2.602-4.8,5.301-7.5,7.602c-0.3-0.102-0.5-0.301-0.6-0.602c0.401-0.798,1-1.398,1.7-2
	c1.9-1.898,3.7-4,5.8-5.699C242.023,275.12,242.123,275.519,242.323,275.718"/>
<path d="M245.424,278.519c0,0.199-0.201,0.398-0.4,0.398c-0.5-0.099-1.1-1.099-1.7-0.398c-0.7,0.601-1.601,1.398-2,2.199
	c0.101,0.5,0.899,0.801,0.601,1.5c0,0.101,0.1,0.101,0,0.199l-0.101,0.102c-0.601-0.2-0.899-0.7-1.399-1
	c-1,0.601-1.9,1.601-2.601,2.398c-0.399,0.702,1.5,1.901-0.2,1.901c-0.6-0.5-0.999-1.101-0.999-1.901
	c0.399-1.398,1.899-2.298,2.699-3.398c0-0.399,0.2-0.801,0.5-0.899l0.5,0.099c1.3-0.801,2.2-3.099,4.101-2.399
	C244.723,277.62,245.323,277.917,245.424,278.519"/>
<path d="M246.523,280.417c0.5,0.102,0.8,0.602,1.1,1c0.1,0.602-0.1,1.202-0.5,1.702l-6.5,6.298c-0.3,0.102-0.8-0.099-0.8-0.5
	c0.899-1.5,2.3-2.599,3.5-3.798c1-1.101,2.3-2,3-3.202c0-0.298-0.3-0.298-0.399-0.398l-0.801,0.3c-2,1.899-3.699,3.5-5.6,5.399
	c-0.301,0.301-0.6,0.601-1,0.5c-0.2-0.199-0.6-0.599-0.2-0.899c2.399-2.3,4.7-4.8,7.2-7
	C246.023,279.718,246.123,280.319,246.523,280.417"/>
<path d="M249.723,285.718c0,0.199-0.199,0.601-0.5,0.601c-0.399,0-0.799-0.901-1.199-0.199l-6.4,6.5c-0.4,0.099-0.6-0.301-0.8-0.601
	l0.101-0.301l6.5-6.699c-0.101-0.399-0.801-0.801-0.4-1.301c0.199-0.301,0.5-0.301,0.699-0.099L249.723,285.718"/>
<path d="M250.424,287.218l-0.101,0.401l-7.3,7.298c-0.4,0.102-0.7-0.398-0.801-0.699l0.301-0.399c2.5-2.401,4.8-4.901,7.3-7.101
	C250.123,286.718,250.323,286.917,250.424,287.218"/>
<path d="M252.823,289.917c0.399,0.401,0.399,1.102,0.3,1.702c-2.199,2.298-4.5,4.599-6.9,6.899c-0.299,0.101-0.5-0.2-0.699-0.5
	c0.8-1.399,2.199-2.301,3.199-3.602c0-0.298-0.299-0.599-0.5-0.798l-0.399,0.099l-3.3,3.101c-0.4,0.2-0.5-0.3-0.7-0.5l0.399-0.699
	c1.201-1.301,2.601-2.202,3.5-3.702C249.424,291.218,250.823,287.62,252.823,289.917"/>
<path d="M255.424,294.718c0,0.199-0.201,0.401-0.5,0.401c-0.5-0.5-1.301-0.5-1.9-0.101l-1.7,1.699c-0.3,0.699,1.5,1.301,0.2,1.801
	c-0.6,0-1.1-1.2-1.7-0.399c-0.7,0.798-1.601,1.5-1.899,2.5c0.1,0.5,1.199,1.199,0.1,1.599c-0.4-0.099-0.801-0.5-1.1-0.899
	c-1.101-2,1.5-3,2.399-4.401c-0.101-0.398,0.2-1,0.601-1h0.399c1.399-0.798,2.101-3.099,4-2.398
	C254.723,293.819,255.323,294.12,255.424,294.718"/>
<path fill="#FFFFFF" d="M195.923,237.219l-0.2,0.6c-2,1.801-3.7,3.801-5.8,5.5l-0.2-0.199c0,0.199-0.2,0.298-0.3,0.1
	c-0.299-0.302,0.1-0.7,0.3-1.1c1.8-1.702,3.7-3.702,5.6-5.202C195.624,236.917,195.923,237.019,195.923,237.219"/>
<path fill="#FFFFFF" d="M229.923,238.719l-0.1,0.5c-0.8,0.8-1.3,1.6-2.199,2.1c-0.401,0-0.5-0.401-0.801-0.6
	c0.6-1,1.5-1.802,2.301-2.4C229.523,238.219,229.823,238.417,229.923,238.719"/>
<path fill="#FFFFFF" d="M209.923,245.319c0,0.9-0.799,1.5-1.5,2.099c-0.4,0.302-1.1,0.302-1.4-0.099l0.101-0.3l2.399-2.2
	C209.723,244.819,209.923,245.12,209.923,245.319"/>
<path fill="#FFFFFF" d="M234.423,247.719l-0.2,0.5c-1.599,2-3.7,3.698-5.599,5.5c-0.301,0.1-0.701,0.1-0.701-0.302
	c0.1-0.898,1.201-1.599,1.8-2.198c1.5-1.1,2.6-2.802,4.2-3.7C234.124,247.417,234.323,247.519,234.423,247.719"/>
<path fill="#FFFFFF" d="M217.023,250.019c-0.1,0.7-0.7,1.3-1.3,1.7c-0.4,0.3-1,1.198-1.5,0.8c-0.2-0.2-0.599-0.602-0.2-0.8
	c0.8-0.7,1.3-1.7,2.2-2.1C216.523,249.62,216.923,249.719,217.023,250.019"/>
<path fill="#FFFFFF" d="M221.923,259.019l-0.6,1c-1.9,1.5-3.4,3.699-5.4,5c-0.2,0.101-0.4-0.102-0.5-0.2l0.1-0.601l5.4-5.301
	C221.124,258.62,222.023,258.417,221.923,259.019"/>
<path fill="#FFFFFF" d="M252.223,290.718c-0.299,1.101-1.6,1.801-2.399,2.601c-0.399,0-0.601-0.401-0.8-0.699
	c0.699-0.901,1.5-1.801,2.5-2.401C251.823,290.218,252.123,290.417,252.223,290.718"/>
<path fill="#FFD520" d="M191.023,362.718c0-0.199,0.2-0.399,0.4-0.599C191.423,362.319,191.223,362.62,191.023,362.718"/>
<path fill="#FFD520" d="M192.723,363.417c-0.3,0.801-1,1.401-1.599,2c-0.201,0.102-0.601,0-0.801-0.298
	c-0.3-0.301,0.2-0.601,0.4-0.901c0.5-0.699,1-1.5,1.7-2C192.723,362.519,192.823,363.019,192.723,363.417"/>
<path fill="#FFFFFF" d="M190.723,363.12c-0.099,0,0.1-0.202,0.1-0.301h0.1L190.723,363.12"/>
<path fill="#FFFFFF" d="M190.523,363.319c0,0,0,0.099-0.1,0.099v-0.099H190.523"/>
<path fill="#FFD520" d="M196.023,366.218c-0.2,0.699-0.899,1.401-1.5,2c-0.3,0.199-0.6-0.099-0.8-0.199
	c-0.3-0.602,0.5-1.102,0.7-1.602c0.5-0.398,0.8-1,1.3-1.298C196.223,365.218,195.923,365.819,196.023,366.218"/>
<path fill="#FFD520" d="M287.023,368.319c0.1,0.2-0.301,0.301-0.4,0.399c-0.699-0.301-1.4-1-1.9-1.599
	c-0.399-0.401-0.199-1-0.1-1.401C285.523,366.519,286.424,367.319,287.023,368.319"/>
<path fill="#FFD520" d="M193.823,366.12c0-0.101,0.301-0.101,0.301-0.301C194.223,366.12,193.923,366.019,193.823,366.12"/>
<polyline fill="#FFFFFF" points="276.424,371.718 276.523,371.819 276.424,371.718 "/>
<path fill="#FFD520" d="M197.823,374.218c-0.1,1-1.1,1.699-1.9,2.301c-0.1-0.102-0.2-0.102-0.299-0.2l0.099-0.101v-0.099
	c0.401-0.702,0.901-1.5,1.6-2L197.823,374.218"/>
<path fill="#FFD520" d="M203.523,377.417c-0.7,1.202-1.5,2.102-2.5,2.901c-0.2,0-0.2-0.101-0.3-0.199h0.1l-0.1-0.101
	c0.6-1.102,1.6-2.301,2.5-3.2C203.423,376.819,203.523,377.12,203.523,377.417"/>
<path fill="#FFD520" d="M272.623,377.319c0.2,0.399,0.301,0.899,0.1,1.301c-0.6-0.301-1.1-0.901-1.399-1.401
	C271.623,376.917,272.223,377.319,272.623,377.319"/>
<path fill="#FFD520" d="M269.023,383.819c0,0.2,0.199,0.2,0.199,0.399h-0.199c-2-2.199-4.1-4-5.9-6.199
	C265.323,379.819,266.924,381.819,269.023,383.819"/>
<path fill="#FFD520" d="M267.823,380.417l-0.101,1c-0.399-0.099-0.699-0.398-0.899-0.798c0.2-0.401,0-0.901,0.3-1.101
	C267.523,379.62,267.924,379.917,267.823,380.417"/>
<path fill="#FFD520" d="M271.223,383.62l-0.699,0.699c-1-0.5-1.6-1.5-2.301-2.3l0.201-1.301
	C269.424,381.519,270.523,382.62,271.223,383.62"/>
<path fill="#FFD520" d="M212.223,385.819c-0.599,0.899-1.3,2-2.2,2.7c-0.2,0-0.399-0.2-0.399-0.399
	c0.299-0.901,1.099-1.5,1.599-2.301C211.624,385.819,211.923,385.718,212.223,385.819"/>
<path fill="#FFD520" d="M233.823,407.718c-0.199-1.199-0.3-2.301,0-3.5C234.124,405.319,234.023,406.519,233.823,407.718"/>
<path fill="#FFD520" d="M234.023,411.718c-0.2,0.5,0.2,1.401-0.3,1.699c-0.9,0,0.1-0.5,0-0.898c0.1-1.102-0.3-1.899,0.2-2.7
	C233.923,410.417,234.023,411.12,234.023,411.718"/>
<polyline fill="#FFFFFF" points="233.823,409.62 233.823,409.417 233.923,409.519 233.823,409.62 "/>
<path d="M269.336,286.535l-0.2,0.5c-2.698,2.5-4.8,4.701-7.3,7c-0.398,0.101-0.7-0.299-0.898-0.6l0.099-0.3
	c2.401-2.5,5-4.899,7.5-7.101C268.836,286.035,269.136,286.334,269.336,286.535"/>
<path d="M246.366,257.552c0.199,0.899-0.201,1.698-0.701,2.299l-4.799,4.601c-0.5,0.5-1.4,0.899-2.201,0.5c-0.6-0.301-1.1-1-1.5-1.5
	l0.101-0.301c2.3-2.4,4.899-4.9,7.399-7.199C245.466,256.152,245.966,256.952,246.366,257.552"/>
<path d="M248.966,259.151v0.401c-1.9,1.899-4.2,3.899-5.801,5.899l-1.699,1.5c-0.301-0.101-0.6-0.301-0.6-0.601v-0.299
	c2.299-2.601,4.899-5,7.399-7.401C248.565,258.75,248.966,258.851,248.966,259.151"/>
<path d="M251.665,260.651c0.301,0.6,0,1.301-0.299,1.801c-0.301,0.399-0.701,1.199-1.201,0.899c-0.399-0.101-0.6-0.5-0.299-0.799
	c0.1-0.601,0.799-0.601,0.899-1.302c-0.101-0.299-0.399-0.299-0.601-0.198c-0.799,0.599-1.699,1.299-1.899,2.399
	c-0.101,2-1,4.101-2.899,5.101c-0.601,0.299-1.301,0.099-1.801-0.201c-0.3-0.5-0.699-1-0.5-1.7c0.301-0.599,0.5-1.4,0.9-1.9
	c0.199-0.198,0.6-0.1,0.8,0c1.3,1.101-1.101,1.701-0.5,2.802c0.899,0.399,1.5-0.701,2-1.201c1.3-2,0.5-5.2,3.101-6.299
	C250.065,259.75,251.266,259.75,251.665,260.651"/>
<path d="M254.366,263.75c0.299,1.201-0.4,2.101-1.201,2.802c-0.299,0-0.6-0.302-0.799-0.5c0.1-0.701,1.1-1.101,1.1-1.901
	c-0.4-0.4-0.801,0-1.1,0.2c-2,1.399-1.101,4-2.4,5.701c-0.9,0.799-1.801,2.099-3.2,1.698c-0.5-0.299-0.899-0.6-1-1.1
	c-0.399-1.4,0.8-2.099,1.399-2.9c0.4,0,0.701,0.4,0.801,0.701c-0.301,0.699-1.5,1.399-0.9,2.199c0.6,0.2,1.1-0.4,1.6-0.8
	c1.701-1.899,0.601-5.2,3.201-6.7C252.665,262.651,254.065,262.75,254.366,263.75"/>
<path d="M257.466,267.351c0,0.3-0.2,0.5-0.4,0.601c-0.5-0.201-1-0.899-1.6-0.601c-0.801,0.8-1.801,1.5-2.2,2.399
	c0.2,0.5,1,0.802,0.7,1.4c-0.2,0.2-0.5,0.401-0.801,0.1c-0.299-0.198-0.799-1-1.199-0.299l-2.1,2.299c-0.4,0.802,1.6,1.302,0.199,2
	c-0.5-0.198-1-0.698-1.199-1.1c-0.701-2.199,1.699-3,2.5-4.599c-0.201-0.302,0-0.601,0.199-0.802c0.301-0.198,0.6,0.101,0.801,0
	c1.399-0.799,2.299-3.6,4.199-2.299L257.466,267.351"/>
<path d="M259.165,270.151c-0.1,1,1.101,0.5,1.5,1.1c0.301,0.5,0.601,1.201,0.301,1.701c-1.9,2.199-4,4.299-6.1,6.399
	c-0.4,0.201-0.701,1.101-1.301,0.601c-0.199-0.201-0.3-0.701,0-0.899l6.2-6.401c0.101-0.199,0.3-0.3,0.2-0.599
	c-0.4-0.201-0.9-0.101-1.2,0.198l-6.399,6.302c-0.301,0-0.601-0.201-0.701-0.5l0.101-0.5l6.101-6.302
	c0.199-0.299,0.5-0.6,0.199-0.899c-0.3-0.399-0.6,0-0.9,0.201l-6.299,6.399c-0.4,0.101-0.701-0.301-0.801-0.601l0.1-0.5l6.701-6.7
	C257.766,268.351,258.866,269.25,259.165,270.151"/>
<path d="M262.165,274.452c-0.799,1.299-2.1,2.399-3.1,3.399c-1.5,1.5-2.9,3-4.4,4.3c-0.399,0.1-0.5-0.3-0.699-0.4l0.1-0.5
	c2.4-2.698,4.801-4.899,7.301-7.299C261.766,273.851,262.065,274.151,262.165,274.452"/>
<path d="M263.466,276.851c0.5,0.399,0.699,1,0.6,1.601c-0.8,1.699-2.6,2.799-3.699,4.299c-1.101,0.9-2.201,2.101-3.301,3
	c-0.3-0.1-0.6-0.299-0.6-0.6l0.1-0.5l6.301-6.4c0-0.299-0.201-0.5-0.5-0.6l-0.701,0.2l-6.1,6c-0.199,0.3-0.5,0-0.8-0.101
	c-0.3-0.299,0-0.6,0.2-0.799c1.699-1.701,3.199-3.5,4.9-5l2.1-1.899C262.565,276.052,262.966,276.75,263.466,276.851"/>
<path d="M265.966,280.851c0.3,0.601,0.3,1.399,0,2c-2.301,2.101-4.5,4.5-6.7,6.601c-0.3,0.101-0.5-0.101-0.7-0.399l0.1-0.5
	l3.101-3.302c-0.101-0.299-0.3-0.698-0.601-0.799l-0.299,0.101l-3.301,3.198c-0.4,0.101-0.6-0.198-0.699-0.5l0.199-0.5
	c1.2-1.399,2.6-2.399,3.4-3.899c0.4-0.2,0.699-0.399,1.1-0.7C262.766,281.151,264.466,278.851,265.966,280.851"/>
<path d="M268.466,285.25c0.199,0.201,0,0.5-0.1,0.701c-0.201,0.199-0.601,0-0.801-0.201c-0.1-0.198-0.5-0.299-0.6-0.1l-6.4,6.5
	c-0.3,0.401-0.6,0-0.9-0.199c-0.199-0.601,0.5-1,0.9-1.399l5.7-6c-0.101-0.401-0.899-0.701-0.399-1.201
	c0.199-0.2,0.6-0.2,0.699,0.101L268.466,285.25"/>
<path d="M271.603,288.333c0.3,0.402,0.3,1.102,0.1,1.602c-1,1.5-2.6,2.7-4,4.1c-1,0.9-2.199,2.9-3.9,2.201
	c-0.5-0.301-0.899-0.902-0.899-1.402c-0.101-0.898,0.5-1.5,1-2.098l5.3-5C270.003,287.236,271.103,287.435,271.603,288.333"/>
<path fill="#FFFFFF" d="M245.266,258.25l-0.2,0.4c-1.6,1.901-3.5,3.6-5.4,5.2c-0.399,0.201-0.899,0-1-0.299l0.101-0.302
	c2-1.899,3.899-4.1,6.101-5.799C245.165,257.552,245.266,257.952,245.266,258.25"/>
<path fill="#FFFFFF" d="M265.165,281.75c-0.399,1-1.399,1.802-2.399,2.4c-0.2-0.099-0.5-0.3-0.601-0.599l0.101-0.401
	c0.8-0.599,1.3-1.599,2.3-2C264.966,281.052,265.165,281.452,265.165,281.75"/>
<path fill="#FFFFFF" d="M270.603,289.035c-0.1,0.799-0.801,1.201-1.301,1.799l-4.299,4c-0.201,0.201-0.5,0.201-0.801,0.201
	c-0.3-0.299,0-0.6,0.1-0.799l5.4-5.301C269.902,288.833,270.402,288.535,270.603,289.035"/>
<path d="M232.618,94.225c0-7.403,0.986-18.111,1.084-25.306c0-0.293-0.498-0.404-0.699-0.293
	c-5.897,7.104-10.5,14.894-12.998,23.497c-5.602,0.489-10.7,0.389-16.501,0.489l-0.44,0.073c-0.288-0.1-0.326-0.422-0.326-0.422
	l0.469-0.448c8.096-7.502,15.897-14.996,23.496-22.896v-0.195c-0.698-0.209-1.4,0.195-2.096,0.498
	c-11.906,5.004-23.307,10.998-35.004,16.591c-0.294,0-0.598-0.094-0.694-0.398l0.3-0.506c6.694-7.286,14.295-13.996,21.794-20.388
	l2.103-1.399l16.701-0.098c0.695-0.208,1.593,0,2.194-0.505c-2.996-2.498-7.801-3.308-12.297-3.308
	c-7.003,0.512-13.403,2.103-19.097,5.808c-0.296,0-0.6-0.301-0.7-0.597c0.595-1.3,2.194-1.606,2.996-2.705
	c6.205-5.197,12.804-9.797,19.29-14.394c0.611-0.101,0.836,0.499,1.042,0.699c4.496,3.698,7.871,7.801,11.666,12.1
	c0.302,0.203,0.797,0.508,1.005,0.094c3.594-4.492,7.699-8.992,11.892-12.696c0.399-0.298,0.805-0.101,1.298-0.101
	c3.807,2.805,7.504,5.194,11.201,8.097c3.606,2.705,7.104,5.71,10.695,8.497c0.205,0.21,0.103,0.603,0.103,0.906l-0.399,0.201
	c-3.2-1.497-5.997-3.703-9.294-4.795c-5.9-2.907-14.396-2.4-20.301,0.497c-0.805,0.595-1.899,0.704-2.495,1.496
	c-0.205,0.297,0.198,0.595,0.493,0.595c6.094,0.298,11.907-0.097,17.9-0.188c8.194,5.489,15.995,11.802,23.196,18.892
	c1.601,1.498,2.503,3.292,4.102,4.601c0.1,0.299,0.108,0.894-0.09,1.095l-0.716-0.398c-1.593-1.296-3.195-2.495-5.002-3.497
	c-6.492-2.797-12.889-6.099-19.498-8.597c-3.995-1.504-7.892-3.406-11.985-4.695l-2.908-0.904l-0.193,0.391
	c6.095,6,12.695,12.506,18.996,18.698c1.502,1.805,3.199,3.306,4.8,5.1c-0.102,0.706-0.709,1.303-1.201,1.406
	c-1.306,0.202-2.201-0.103-3.305,0.3c-4.491,0.193-8.796,0.4-13.195,0.296c-1.396-6.293-4.1-12.298-7.197-17.995
	c-1.604-2.402-2.901-4.996-5.003-7.204c-0.695,0-0.604,1.004-0.604,1.406c0.104,6.5,1.082,15.828,1.337,22.508l0.368,5.987
	c1.893,3.486,3.517,6.975,4.801,9.301c3.279-2.638,8.271-7.5,11.697-10.708c0.58-0.478,1.033,0.155,1.332,0.954
	c0.799,4.598,1.265,10.248,1.463,14.846c-0.09,0.599,0,1.607,0.608,2.005c5.289-2.005,10.596-4.197,15.999-6.103
	c0.395,0.103,0.395,0.702,0.196,0.902l-4.696,14.101c0.1,1.003,0.387,1.009,1.794,1.003c2.602,0.199,15.708,0.598,16.107,1.8
	c-0.301,1.199-8.4,11.588-10.402,14.789l0.094,0.403c4.602,2.205,9.199,4.601,13.809,6.899c0.196,0.306,0.087,0.704-0.2,0.797
	c-4.409,2.403-9.007,4.498-13.308,7.008c0.506,1.292,2.102,2.404,3.104,3.593c2.398,2.501,5.391,5,7.493,7.604
	c0.948,0.705,0.2,1.398-0.699,1.398c-1.797,0.3-17.292,1.001-18.192,1.505l-0.1,1.2c1,3.696,2.497,7.294,3.994,10.893
	c1.339,0.425,1.597,0.726,2.806,1.302c2.1,1.197,4.1,3.295,5.298,5.295c0,0.999,0.597,2.4-0.498,3
	c-2.004,0.904-4.304,1.197-6.6,1.398c-2.804,0.206-5.31-0.595-7.4-2.094c-3.9,1.499-9.405,2.094-13.002-0.301
	c-2.398,0.897-4.797,2.001-7.597,2.001c-1.696-0.301-3.4-0.904-4.899-1.809c-2.095,0.205-3.793,1.608-5.9,1.709
	c-2.898,0.494-5.804-0.201-8.298-1.106c-3.403,1.6-7.902,1.507-11.499,0.302c-5.805,1.6-13.807,2.1-17.996-3.196
	c-1.303-1.607-3.203-3.207-3.3-5.5c0.3-0.906,3.491-1.803,4.097-2.194c1.396-2.606,1.897-5.706,3.095-8.505
	c-0.096-0.403-0.6-0.596-0.994-0.505c-1.9,0.3-15.705-0.303-17.299-0.303c-0.905-0.692,8.595-11.991,10.593-14.785
	c-0.192-0.806-1.291-0.902-1.898-1.409c-3.795-2.5-7.998-3.8-11.795-6.196c-0.493-0.5,0.202-0.796,0.301-1.201l12.305-6.491
	c0.191-0.309,0.693-0.411,0.489-0.907c-2.091-2.294-9.298-9.791-10.292-10.6c-0.403-0.691-0.867-1.044,0.497-1.296
	c0.401-0.601,13.495-1.608,17.493-1.499c0.41-0.21,0.712-0.3,0.6-0.805l-5.195-16.101c-0.201-0.488-0.1-1.091,0.402-1.295
	c4.793,1.295,9.4,3.206,14.197,4.596c0.602-0.591,0.497-1.606,0.497-2.501c0.401-4.499-0.096-9.39,1.002-13.8
	c0.398-0.393,0.996-0.599,1.498-0.295c1.401,1.304,12.301,9.905,12.803,10.397c1.426-2.699,4.112-7.564,4.986-9.608L232.618,94.225"
	/>
<path fill="#00693F" d="M256.699,55.823c-2.003,0-4.299-0.201-6.303-0.099c-3.293,0.302-6.195,1.295-9.296,2.201
	c1.903-2.9,4.899-5.609,7.804-7.602C251.603,52.012,254.295,53.72,256.699,55.823"/>
<path fill="#00693F" d="M223.5,51.312c2.207,2.408,4.701,4.412,6.503,6.909c-2.996-0.605-5.997-1.797-9.3-2
	c-2.196,0.403-4.695,0.299-6.903,0.798l-1.758,0.485c2.706-2.293,7.259-4.979,10.259-6.889L223.5,51.312"/>
<path fill="#00693F" d="M255.7,64.718c2.896,2.006,5.899,3.908,8.702,6.195c0.791,0.806,6.795,5.201,7.797,6.71
	c-10.399-4.699-21.193-8.899-32.197-12.401l-0.194-0.404C244.903,64.422,250.302,64.616,255.7,64.718"/>
<path fill="#00693F" d="M228.105,64.718c0.194,0.402,0.295,0.201,0.295,0.402c-0.896,0.703-2.299,1.302-3.498,1.703
	c-7.795,3.592-17.907,7.826-25.613,11.426l-0.099-0.2c4.402-4.096,10.758-9.191,15.69-13.076
	C218.885,64.973,224.006,64.616,228.105,64.718"/>
<path fill="#00693F" d="M245.192,75.016c5.204,4.1,9.103,9.297,13.905,13.801l0.534,0.439c0.672,0.597,1.87,1.788,2.462,2.388
	c-0.592,0.503-2.181,0.524-3.287,0.524c-2.188-0.099-4.428,0.451-6.723,0.149c-2.196-5.902-5.381-12.397-8.582-17.904l-0.204-0.895
	C244.201,73.518,244.501,74.527,245.192,75.016"/>
<path fill="#00693F" d="M224.301,75.613c-1.899,4.103-4.19,9.24-5.984,13.341c-1.704,0.606-5.406,0.524-7.097,0.524
	c-0.306-0.298-1.495,0.449-1.495-0.148c3.189-3.902,9.881-9.41,13.58-13.116C223.604,76.021,223.798,75.425,224.301,75.613"/>
<path fill="#7D4802" d="M238.109,183.112c-0.21,0.788-1.311,0.788-1.908,1.088c-1.504,0.401-2.7-0.793-4.094-0.997
	c0,0,2.685-66.236,3.344-82.988L238.109,183.112"/>
<path fill="#FFD520" d="M264.698,143.306c2.702,11.999-1.298,23.699-11.1,31.198c-3.6,2.604-7.499,4.199-11.696,5.099
	c-0.704-0.1-0.503-0.999-0.602-1.497l-1.602-55.993c-0.098-0.502,0.406-0.611,0.802-0.611
	C251.603,122.809,262.1,132.512,264.698,143.306"/>
<path fill="#FFD520" d="M231.202,122.316l-0.6,18.086l-1.699,38.202c-0.604,0.603-1.797,0.099-2.604-0.098
	c-10.191-3.208-18.298-13.603-19.491-24.096c-1.402-11.6,3.9-22.6,13.798-28.8c2.998-1.902,6.295-3.099,9.794-3.895
	C230.905,121.611,231.301,121.907,231.202,122.316"/>
<path fill="#FFD520" d="M254.199,108.51c0.199,2.908,0.296,6.304,0.703,9.103l-0.913,0.796l-5.085,1.9
	c-1.405-2.395-3.107-4.897-3.712-7.8l0.212-0.396c2.793-2.697,5.396-5.197,8.298-7.497
	C254.199,105.715,253.989,107.216,254.199,108.51"/>
<path fill="#FFD520" d="M225.106,113.91c-0.606,1.9-1.502,3.807-2.501,5.5l-0.493,0.208l-5.507-1.901
	c-0.597-1.81,0.03-9.375,0.4-11.201C218.579,107.296,224.006,112.316,225.106,113.91"/>
<path fill="#FFD520" d="M241.802,112.812l2.497,5.597c0.1,0.697-0.897,0.304-1.295,0.304l-3.305-0.902l-0.199-0.901
	c0-2.49-0.299-5.292,0-7.694C240.603,110.019,241.007,111.618,241.802,112.812"/>
<path fill="#FFD520" d="M231.4,118.21c-1.397,0.503-2.895,0.896-4.499,0.995l-0.198-0.4c1.303-3.187,2.802-6.395,4.499-9.389
	c0.198,0,0.503-0.101,0.503,0.301L231.4,118.21"/>
<path fill="#FFD520" d="M269.602,116.418c-0.601,2.992-1.8,5.898-2.804,8.79c-1,2.709-1.701,5.403-2.895,7.899
	c-0.907-0.088-1.003-1.297-1.706-1.795c-2.395-3.201-5.398-5.798-8.397-8.302l1.001-0.694l14.496-6.002L269.602,116.418"/>
<path fill="#FFD520" d="M218.602,122.017c0.502,0.494,0,0.903-0.392,1.292c-4.309,2.705-7.81,6.795-10.504,10.902h-0.396
	c-1.808-5.601-3.705-11.1-5.399-16.804c0-0.293-0.108-0.697,0.19-0.989l1.908,0.492L218.602,122.017"/>
<path fill="#FFD520" d="M281.496,130.509c-0.599,2.598-6.499,8.998-7.701,10.096c-0.3,0.603-1.099,0.302-1.497,0l-5.702-2.889
	l-0.097-0.409c0.996-2.497,1.404-5.097,2.502-7.498C272.095,129.003,281.496,130.509,281.496,130.509"/>
<path fill="#FFD520" d="M203.605,133.205c0.5,1.307,1.101,2.708,1.101,4.208c-1.896,1.398-4.399,2.783-6.599,3.577
	c-0.697,0.1-6.19-6.021-7.06-7.172c0,0,11.054-1.214,12.359-1.009L203.605,133.205"/>
<path fill="#FFD520" d="M204.009,142.505c0.096,2.202-0.699,4.301-0.603,6.601c-0.096,3.407,0.199,6.794,0.998,9.996l-0.197,0.302
	c-2.503-0.99-4.9-2.397-7.301-3.504c-3.103-1.19-5.898-2.988-8.699-4.491c-0.503-0.604,0.399-0.9,0.798-1.102
	c4.798-2.698,9.802-5.198,14.6-7.802H204.009"/>
<path fill="#FFD520" d="M284.09,150.509l0.207,0.4c-5.207,2.896-10.698,5.495-16.2,7.798l-0.101-0.102
	c0.801-4.8,1.005-10.398,0-15.197l0.304-0.403C273.795,145.109,278.907,148.009,284.09,150.509"/>
<path fill="#FFD520" d="M281.405,166.577c-1.492,0.448-10.71,0.724-13.705,0.93c-0.498-1.099-1.201-2.302-1.201-3.501l7.398-3.792
	C275.899,161.404,280.706,166.074,281.405,166.577"/>
<path fill="#FFD520" d="M205.11,164.3c0.19,1.803-0.903,3.409-1.304,5.105c-2.412,0.834-11.099,0.703-12.502,0.9
	c-0.402-0.098-0.597-0.598-0.296-0.9c2.102-3.302,5.499-5.399,7.7-8.497C201.001,161.705,202.903,163.106,205.11,164.3"/>
<path fill="#FFD520" d="M208.402,168.204c1.909,2.803,4.299,5.403,6.909,7.7l4.393,3.399c-0.301,0.809-1.494,0.908-2.307,1.203
	c-2.895,1.398-6.394,1.599-9.093,3.597l-5.198-1.703c0.903-4.797,3.602-9.095,4.6-13.996
	C207.804,168.104,208.205,168.008,208.402,168.204"/>
<path fill="#FFD520" d="M269.801,183.304l-0.199,0.297c-2.106,0.201-4.106,0-5.802-0.793l-10.503-3.409
	c-0.493-0.292-0.188-0.795,0.203-0.994c3.901-2.501,7.5-6.193,10.098-9.9l0.306-0.197C266.596,173,267.7,178.405,269.801,183.304"/>
<path fill="#68AEE0" d="M252.072,183.048c-1.502,0.205-3.006,0.996-4.497,0.899c0.095-0.596,0.299-1.794,1.098-2.098
	C249.967,181.954,251.168,182.246,252.072,183.048"/>
<path fill="#68AEE0" d="M223.604,183.149c-0.104,0.7-0.999,0.798-1.492,1.194l-1.806-0.897c0.699-0.398,1.806-1,2.997-0.892
	L223.604,183.149"/>
<path fill="#FFD520" d="M212.604,191.302c0.502,0.204,0.606,0.599,0.606,0.892c-2.402,1.108-5.504,0.806-8.1,0.304
	c-2.799-0.895-5.304-3.299-6.71-5.994c0.308-1.097,1.911-0.999,3.002-1.198C205.804,185.802,210.106,187.206,212.604,191.302"/>
<path fill="#00693F" d="M224.902,191.406c-0.105,0.601-0.997,0.601-1.501,0.788c-2.9,0.711-5.595-0.293-7.798-1.687
	c-1.001-1.404-2.393-2.611-3.601-3.805c0.105-1.197,1.603-1,2.401-1.396C218.808,184.906,222.804,187.507,224.902,191.406"/>
<path fill="#00693F" d="M264.497,191.302c-1.501,1.196-3.898,0.892-5.996,0.705c-3.302-0.106-5.802-2.302-8.405-4.408
	c-0.195-0.496-1.191-0.897-0.597-1.586c3.403-1.21,7.3-0.809,10.402,0.893C261.6,188.008,263.194,189.705,264.497,191.302"/>
<path fill="#FFFFFF" d="M238.701,191.108c0,0.899-0.998,0.698-1.402,1.086c-3.091,1.012-6.501,0.304-9.098-1.19l-3.701-4.302
	c0.107-1.095,1.404-0.9,2.203-1.197C231.705,185.204,236.002,187,238.701,191.108"/>
<path fill="#FFFFFF" d="M279.802,191.506c-0.712,2.194-3.398,1.591-5.105,1.7c-3.202-0.808-6.6-1.199-8.7-4.196
	c-0.598-0.901-2.004-1.503-1.594-2.506c3.897-1.399,8.792-0.6,12.094,1.906C277.8,189.103,278.907,190.299,279.802,191.506"/>
<path fill="#FFD520" d="M251.603,191.302l-0.701,0.406c-5.104,1.799-9.302-1.103-12.704-4.502c-0.494-0.402-0.193-0.998,0.408-1.106
	c2.994-0.595,6,0,8.498,1.304C248.701,188.6,250.502,189.705,251.603,191.302"/>
</svg>
